<svg xmlns="http://www.w3.org/2000/svg" xmlns:xlink="http://www.w3.org/1999/xlink" width="500" zoomAndPan="magnify" viewBox="0 0 375 374.999991" height="500" preserveAspectRatio="xMidYMid meet" version="1.0"><defs><clipPath id="798e696b12"><path d="M 1 46.515625 L 374 46.515625 L 374 312.015625 L 1 312.015625 Z M 1 46.515625 " clip-rule="nonzero"/></clipPath></defs><rect x="-37.5" width="450" fill="#ffffff" y="-37.499999" height="449.999989" fill-opacity="1"/><rect x="-37.5" width="450" fill="#ffffff" y="-37.499999" height="449.999989" fill-opacity="1"/><g clip-path="url(#798e696b12)"><path fill="#083c71" d="M 354.464844 86.691406 L 333.773438 86.691406 L 333.773438 67.601562 C 333.773438 56.09375 324.410156 46.730469 312.902344 46.730469 L 22.140625 46.730469 C 10.632812 46.730469 1.269531 56.09375 1.269531 67.601562 L 1.269531 251.332031 C 1.269531 262.839844 10.632812 272.203125 22.140625 272.203125 L 41.226562 272.203125 L 41.226562 292.902344 C 41.226562 303.523438 49.867188 312.164062 60.492188 312.164062 L 354.464844 312.164062 C 365.085938 312.164062 373.730469 303.523438 373.730469 292.902344 L 373.730469 105.957031 C 373.730469 95.328125 365.085938 86.691406 354.464844 86.691406 Z M 22.140625 59.574219 L 312.902344 59.574219 C 317.328125 59.574219 320.929688 63.175781 320.929688 67.601562 L 320.929688 208.292969 L 245.5 132.863281 C 240.632812 127.996094 232.722656 127.996094 227.855469 132.863281 L 183.214844 177.5 L 125.675781 119.960938 C 120.808594 115.09375 112.898438 115.09375 108.039062 119.960938 L 14.113281 213.886719 L 14.113281 67.601562 C 14.113281 63.175781 17.714844 59.574219 22.140625 59.574219 Z M 14.113281 251.332031 L 14.113281 232.042969 L 116.597656 129.042969 L 229.335938 241.785156 C 230.589844 243.035156 232.234375 243.664062 233.878906 243.664062 C 235.523438 243.664062 237.164062 243.035156 238.417969 241.785156 C 240.929688 239.273438 240.929688 235.214844 238.417969 232.703125 L 192.277344 186.5625 L 236.421875 141.949219 L 320.929688 226.460938 L 320.929688 251.339844 C 320.929688 255.761719 317.328125 259.367188 312.902344 259.367188 L 22.140625 259.367188 C 17.714844 259.359375 14.113281 255.761719 14.113281 251.332031 Z M 360.886719 292.902344 C 360.886719 296.445312 358.003906 299.324219 354.464844 299.324219 L 60.492188 299.324219 C 56.953125 299.324219 54.070312 296.445312 54.070312 292.902344 L 54.070312 272.203125 L 312.902344 272.203125 C 324.410156 272.203125 333.773438 262.839844 333.773438 251.332031 L 333.773438 99.535156 L 354.464844 99.535156 C 358.003906 99.535156 360.886719 102.410156 360.886719 105.957031 Z M 360.886719 292.902344 " fill-opacity="1" fill-rule="nonzero"/></g><path fill="#083c71" d="M 178.226562 118.800781 C 190.921875 118.800781 201.253906 108.472656 201.253906 95.773438 C 201.253906 83.070312 190.921875 72.742188 178.226562 72.742188 C 165.53125 72.742188 155.199219 83.070312 155.199219 95.773438 C 155.199219 108.472656 165.53125 118.800781 178.226562 118.800781 Z M 178.226562 85.585938 C 183.847656 85.585938 188.410156 90.160156 188.410156 95.773438 C 188.410156 101.382812 183.847656 105.957031 178.226562 105.957031 C 172.609375 105.957031 168.042969 101.382812 168.042969 95.773438 C 168.042969 90.160156 172.609375 85.585938 178.226562 85.585938 Z M 178.226562 85.585938 " fill-opacity="1" fill-rule="nonzero"/></svg>