<svg xmlns="http://www.w3.org/2000/svg" xmlns:xlink="http://www.w3.org/1999/xlink" width="500" zoomAndPan="magnify" viewBox="0 0 375 374.999991" height="500" preserveAspectRatio="xMidYMid meet" version="1.0"><rect x="-37.5" width="450" fill="#ffffff" y="-37.499999" height="449.999989" fill-opacity="1"/><rect x="-37.5" width="450" fill="#ffffff" y="-37.499999" height="449.999989" fill-opacity="1"/><path fill="#ffffff" d="M 340.75 212.464844 C 333.847656 210.058594 326.699219 208.902344 319.570312 209.054688 C 310.878906 204.730469 301.0625 202.617188 290.542969 202.851562 C 284.789062 202.980469 279.011719 204.050781 273.292969 206.035156 C 269.082031 204.605469 264.789062 203.664062 260.441406 203.195312 L 333.515625 130.121094 C 341.652344 121.984375 346.136719 111.164062 346.136719 99.660156 C 346.136719 88.152344 341.652344 77.335938 333.507812 69.191406 C 325.375 61.0625 314.558594 56.585938 303.0625 56.585938 C 291.558594 56.585938 280.746094 61.066406 272.605469 69.203125 L 257.324219 84.484375 C 257.355469 80.953125 256.925781 77.40625 255.996094 73.953125 C 255.957031 73.808594 255.917969 73.664062 255.875 73.519531 C 254.902344 70.085938 253.480469 66.871094 251.691406 63.917969 C 251.160156 60.511719 250.1875 57.15625 248.753906 53.921875 C 247.15625 50.300781 245.015625 46.980469 242.445312 44.046875 C 241.222656 40.492188 239.507812 37.136719 237.304688 34.035156 C 237.28125 34.003906 237.257812 33.972656 237.234375 33.941406 C 235.148438 31.023438 232.667969 28.429688 229.902344 26.207031 C 228.265625 23.21875 226.246094 20.425781 223.863281 17.933594 C 223.492188 17.539062 223.105469 17.15625 222.714844 16.78125 C 220.191406 14.375 217.398438 12.347656 214.414062 10.707031 C 212.199219 7.964844 209.621094 5.5 206.722656 3.425781 C 206.671875 3.390625 206.621094 3.355469 206.574219 3.320312 C 203.484375 1.128906 200.144531 -0.574219 196.609375 -1.789062 C 193.675781 -4.359375 190.355469 -6.496094 186.742188 -8.097656 C 183.519531 -9.527344 180.175781 -10.507812 176.742188 -11.035156 C 173.757812 -12.835938 170.53125 -14.261719 167.132812 -15.222656 C 166.992188 -15.261719 166.847656 -15.300781 166.703125 -15.34375 C 163.371094 -16.238281 159.9375 -16.691406 156.492188 -16.691406 C 156.222656 -16.691406 155.953125 -16.679688 155.679688 -16.675781 C 152.066406 -18.070312 148.234375 -18.9375 144.304688 -19.203125 C 140.820312 -19.445312 137.351562 -19.207031 133.976562 -18.546875 C 131.480469 -19.039062 128.929688 -19.296875 126.351562 -19.296875 C 125.441406 -19.296875 124.519531 -19.265625 123.605469 -19.203125 C 119.679688 -18.9375 115.851562 -18.066406 112.238281 -16.675781 C 111.96875 -16.679688 111.695312 -16.691406 111.425781 -16.691406 C 107.980469 -16.691406 104.542969 -16.238281 101.210938 -15.339844 C 101.066406 -15.300781 100.925781 -15.261719 100.78125 -15.222656 C 97.386719 -14.261719 94.160156 -12.835938 91.175781 -11.035156 C 87.753906 -10.507812 84.417969 -9.53125 81.203125 -8.109375 C 77.578125 -6.507812 74.246094 -4.367188 71.304688 -1.789062 C 67.742188 -0.5625 64.367188 1.164062 61.230469 3.402344 C 58.316406 5.480469 55.726562 7.957031 53.5 10.707031 C 50.515625 12.347656 47.714844 14.378906 45.191406 16.792969 C 44.808594 17.160156 44.433594 17.535156 44.066406 17.917969 C 41.679688 20.414062 39.65625 23.210938 38.015625 26.203125 C 35.25 28.433594 32.765625 31.027344 30.675781 33.949219 C 30.648438 33.984375 30.621094 34.023438 30.597656 34.058594 C 28.402344 37.152344 26.6875 40.5 25.472656 44.046875 C 22.90625 46.976562 20.769531 50.292969 19.171875 53.90625 C 17.730469 57.144531 16.753906 60.507812 16.222656 63.917969 C 14.433594 66.875 13.007812 70.097656 12.039062 73.539062 C 12 73.671875 11.960938 73.808594 11.925781 73.941406 C 10.957031 77.546875 10.527344 81.25 10.605469 84.933594 C 9.203125 88.554688 8.328125 92.394531 8.0625 96.332031 C 7.816406 99.847656 8.042969 103.320312 8.699219 106.691406 C 8.042969 110.0625 7.816406 113.539062 8.0625 117.054688 C 8.328125 120.996094 9.203125 124.835938 10.605469 128.457031 C 10.527344 132.136719 10.957031 135.839844 11.925781 139.441406 C 11.960938 139.578125 12 139.714844 12.039062 139.851562 C 13.011719 143.289062 14.433594 146.511719 16.226562 149.472656 C 16.757812 152.882812 17.734375 156.246094 19.175781 159.484375 C 20.769531 163.09375 22.910156 166.410156 25.472656 169.339844 C 26.691406 172.890625 28.40625 176.242188 30.605469 179.339844 C 30.632812 179.375 30.65625 179.410156 30.683594 179.445312 C 32.769531 182.367188 35.253906 184.957031 38.015625 187.183594 C 39.65625 190.175781 41.675781 192.96875 44.0625 195.460938 C 44.183594 195.589844 44.3125 195.710938 44.433594 195.835938 C 44.117188 195.851562 43.792969 195.863281 43.480469 195.882812 L 42.941406 195.902344 C 40.484375 195.984375 35.910156 196.136719 30.453125 197.65625 C 9.308594 203.542969 -5.769531 223.515625 -5.402344 245.140625 C -5.21875 255.960938 -5.257812 267.144531 -5.292969 277.957031 C -5.304688 282.40625 -5.320312 286.859375 -5.320312 291.308594 L -5.324219 301.074219 C -5.324219 313.554688 -5.328125 326.035156 -5.3125 338.511719 C -5.300781 350 -2.136719 360.109375 4.089844 368.5625 C 13.433594 381.230469 27.640625 388.324219 44.101562 388.535156 C 51.316406 388.625 58.027344 388.671875 64.617188 388.671875 C 71.003906 388.671875 77.277344 388.625 83.265625 388.539062 C 97.710938 388.332031 110.304688 382.792969 119.175781 373.515625 C 123.542969 374.34375 127.550781 375.113281 131.425781 375.863281 C 136.484375 376.84375 141.40625 377.652344 146.164062 378.4375 C 148.289062 378.785156 150.417969 379.136719 152.542969 379.5 C 161.003906 380.949219 169.46875 382.402344 177.925781 383.867188 L 179.230469 384.09375 C 184.328125 384.980469 190.089844 385.980469 196.539062 386.390625 C 196.714844 386.414062 196.890625 386.441406 197.066406 386.464844 C 198.910156 386.722656 201.992188 387.152344 205.699219 387.148438 C 207.347656 387.148438 208.996094 387.066406 210.59375 386.898438 C 219.285156 385.996094 226.320312 383.386719 232.222656 381.015625 C 241.679688 377.222656 251.28125 372.660156 261.570312 367.066406 L 264.632812 365.40625 C 275.996094 359.238281 287.746094 352.859375 299.339844 345.761719 C 303.527344 343.195312 307.726562 340.703125 312.175781 338.066406 C 319.816406 333.527344 327.722656 328.835938 335.597656 323.734375 C 341.707031 319.78125 347.214844 316.386719 352.4375 313.351562 C 363.882812 306.703125 372.578125 296.015625 376.921875 283.25 C 381.5625 269.617188 380.757812 255.140625 374.652344 242.488281 C 367.746094 228.179688 356.023438 217.796875 340.75 212.464844 Z M 340.75 212.464844 " fill-opacity="1" fill-rule="nonzero"/><path fill="#083c71" d="M 29.84375 291.3125 C 29.84375 275.722656 30.019531 260.132812 29.757812 244.546875 C 29.652344 238.484375 34.886719 232.921875 39.882812 231.53125 C 41.703125 231.023438 43.511719 231.089844 45.351562 230.992188 C 53.300781 230.566406 61.25 231.285156 69.195312 230.808594 C 74.355469 230.496094 79.554688 230.773438 84.683594 231.027344 C 91.929688 231.382812 98.078125 238.179688 97.570312 244.726562 C 97.394531 246.96875 97.53125 249.234375 97.515625 251.492188 C 97.507812 252.628906 97.964844 253.011719 99.132812 252.734375 C 106.863281 250.898438 114.585938 248.992188 122.355469 247.339844 C 127.34375 246.277344 132.40625 245.550781 137.449219 244.796875 C 139.355469 244.511719 141.296875 244.925781 143.171875 245.296875 C 157.285156 248.085938 171.203125 251.691406 185.148438 255.179688 C 191.382812 256.738281 197.613281 258.304688 203.828125 259.945312 C 205.570312 260.402344 207.058594 260.050781 208.582031 259.21875 C 219.519531 253.242188 230.433594 247.226562 241.4375 241.371094 C 249.515625 237.070312 257.742188 236.808594 266.011719 241.039062 C 267.792969 241.949219 269.5625 242.804688 270.925781 244.328125 C 271.640625 245.128906 272.492188 245.085938 273.464844 244.707031 C 276.074219 243.691406 278.433594 242.191406 280.914062 240.929688 C 284.203125 239.253906 287.667969 238.085938 291.347656 238.003906 C 298.214844 237.84375 304.476562 239.664062 309.558594 244.539062 C 310.71875 245.652344 311.855469 245.90625 313.328125 245.417969 C 318.628906 243.65625 324.042969 243.875 329.164062 245.660156 C 335.265625 247.792969 340.054688 251.6875 342.992188 257.773438 C 347.335938 266.769531 343.121094 278.101562 334.78125 282.945312 C 328.59375 286.539062 322.507812 290.324219 316.496094 294.214844 C 304.867188 301.742188 292.796875 308.539062 280.988281 315.765625 C 269.175781 323 256.960938 329.554688 244.785156 336.167969 C 236.4375 340.703125 227.933594 344.847656 219.128906 348.382812 C 215.207031 349.957031 211.238281 351.476562 206.960938 351.921875 C 204.28125 352.199219 201.699219 351.46875 199.058594 351.316406 C 193.964844 351.015625 188.941406 350.085938 183.917969 349.214844 C 175.441406 347.75 166.960938 346.292969 158.480469 344.839844 C 151.695312 343.675781 144.882812 342.652344 138.121094 341.339844 C 128.238281 339.425781 118.34375 337.5625 108.449219 335.71875 C 105.394531 335.148438 102.339844 334.535156 99.285156 333.925781 C 97.957031 333.660156 97.5 334.144531 97.527344 335.472656 C 97.5625 337.460938 97.667969 339.480469 97.359375 341.425781 C 96.191406 348.757812 90.890625 353.261719 82.757812 353.378906 C 70.023438 353.5625 57.285156 353.535156 44.550781 353.375 C 39.78125 353.3125 35.441406 351.828125 32.394531 347.691406 C 30.339844 344.902344 29.851562 341.761719 29.847656 338.472656 C 29.828125 322.753906 29.839844 307.03125 29.84375 291.3125 M 221.433594 264.117188 C 221.445312 264.292969 221.457031 264.46875 221.46875 264.648438 C 224.511719 265.472656 227.585938 266.210938 230.597656 267.136719 C 237.203125 269.171875 243.289062 272.089844 248.125 277.261719 C 250.625 279.941406 252.03125 283.136719 252.734375 286.578125 C 254.65625 296.046875 249.039062 305.078125 240.871094 309.523438 C 235.847656 312.261719 230.542969 313.433594 224.632812 312.964844 C 216.113281 312.289062 207.628906 311.328125 199.144531 310.417969 C 190.453125 309.488281 181.78125 308.394531 173.085938 307.492188 C 170.289062 307.203125 167.394531 307.070312 164.683594 306.085938 C 160.929688 304.722656 160.070312 301.164062 162.675781 298.191406 C 164.242188 296.402344 166.230469 296.175781 168.300781 296.445312 C 173.558594 297.125 178.855469 297.515625 184.09375 298.261719 C 191.4375 299.3125 198.851562 299.660156 206.183594 300.792969 C 212.339844 301.746094 218.570312 302.027344 224.769531 302.589844 C 228.398438 302.921875 231.757812 302.679688 234.949219 300.871094 C 239.289062 298.40625 241.777344 294.796875 241.519531 289.707031 C 241.28125 284.984375 238.4375 282.082031 234.417969 279.941406 C 229.078125 277.101562 223.207031 275.890625 217.484375 274.324219 C 204.007812 270.632812 190.445312 267.242188 176.902344 263.789062 C 169.136719 261.808594 161.359375 259.871094 153.550781 258.054688 C 148.84375 256.960938 144.074219 256.125 139.328125 255.199219 C 138.078125 254.957031 136.828125 255.101562 135.570312 255.292969 C 130.851562 256.015625 126.246094 257.285156 121.566406 258.199219 C 114.417969 259.597656 107.402344 261.65625 100.265625 263.132812 C 97.953125 263.609375 97.460938 264.558594 97.46875 266.683594 C 97.550781 284.589844 97.566406 302.5 97.5 320.40625 C 97.496094 322.417969 98.191406 323.257812 100.078125 323.59375 C 107.378906 324.902344 114.6875 326.179688 121.953125 327.675781 C 132.328125 329.8125 142.765625 331.589844 153.1875 333.464844 C 165.304688 335.644531 177.417969 337.875 189.613281 339.636719 C 194.585938 340.355469 199.589844 340.875 204.554688 341.652344 C 205.414062 341.789062 206.269531 341.695312 207.117188 341.480469 C 210.984375 340.507812 214.789062 339.308594 218.371094 337.5625 C 229.625 332.066406 240.882812 326.605469 251.765625 320.351562 C 265.898438 312.226562 280.070312 304.175781 293.957031 295.628906 C 301.179688 291.183594 308.460938 286.835938 315.699219 282.414062 C 319.9375 279.824219 324.214844 277.273438 328.355469 274.527344 C 333.292969 271.253906 334.46875 265.4375 331.871094 260.609375 C 328.457031 254.265625 319.65625 253.117188 313.695312 256.515625 C 310.878906 258.117188 307.996094 259.597656 305.121094 261.097656 C 296.199219 265.753906 287.273438 270.410156 278.332031 275.035156 C 274.921875 276.800781 271.71875 279.003906 268.03125 280.175781 C 265.164062 281.089844 262.175781 279.707031 261.207031 277.265625 C 260.230469 274.8125 261.230469 272.402344 264.09375 270.875 C 275.792969 264.644531 287.519531 258.472656 299.234375 252.273438 C 299.746094 252 300.519531 251.867188 300.539062 251.195312 C 300.5625 250.425781 299.777344 250.136719 299.191406 249.90625 C 295.054688 248.273438 290.863281 247.644531 286.683594 249.6875 C 284.839844 250.585938 283.148438 251.785156 281.3125 252.6875 C 273.996094 256.285156 266.910156 260.3125 259.664062 264.039062 C 257.382812 265.210938 255.136719 266.570312 252.609375 267.214844 C 249.894531 267.910156 247.21875 266.554688 246.054688 263.988281 C 245.175781 262.054688 246 259.882812 248.289062 258.210938 C 248.769531 257.863281 249.304688 257.585938 249.832031 257.304688 C 253.390625 255.386719 256.945312 253.460938 260.515625 251.570312 C 261.519531 251.039062 261.707031 250.648438 260.570312 250.011719 C 257.125 248.082031 253.527344 247.617188 249.867188 249.113281 C 245.820312 250.765625 242.085938 253.070312 238.246094 255.148438 C 232.660156 258.167969 227.039062 261.128906 221.433594 264.117188 " fill-opacity="1" fill-rule="nonzero"/><path fill="#083c71" d="M 64.617188 340.320312 C 58.234375 340.320312 51.722656 340.277344 44.714844 340.191406 C 43.757812 340.175781 43.285156 340.042969 43.125 339.988281 C 43.085938 339.761719 43.035156 339.296875 43.035156 338.460938 C 43.019531 325.984375 43.023438 313.511719 43.023438 301.039062 L 43.027344 291.316406 C 43.027344 286.914062 43.042969 282.511719 43.054688 278.109375 C 43.089844 267.226562 43.128906 255.976562 42.945312 244.84375 C 43.082031 244.648438 43.304688 244.417969 43.503906 244.265625 C 43.808594 244.246094 44.230469 244.230469 44.5625 244.222656 C 45.058594 244.203125 45.558594 244.1875 46.058594 244.160156 C 47.613281 244.078125 49.277344 244.035156 51.296875 244.035156 C 53.125 244.035156 54.957031 244.070312 56.785156 244.101562 C 58.761719 244.132812 60.738281 244.164062 62.714844 244.164062 C 65.464844 244.164062 67.773438 244.105469 69.988281 243.96875 C 71.265625 243.894531 72.617188 243.855469 74.121094 243.855469 C 77.171875 243.855469 80.285156 244.011719 83.578125 244.171875 L 83.929688 244.191406 C 84.058594 244.246094 84.234375 244.382812 84.367188 244.523438 C 84.265625 246.324219 84.269531 263.695312 84.28125 266.742188 C 84.367188 285.71875 84.378906 303.257812 84.3125 320.355469 C 84.304688 323.234375 84.28125 332.578125 84.34375 335.722656 L 84.359375 336.613281 C 84.382812 337.617188 84.414062 338.867188 84.332031 339.363281 C 84.285156 339.660156 84.226562 339.855469 84.1875 339.96875 C 83.945312 340.058594 83.414062 340.183594 82.5625 340.195312 C 76.8125 340.277344 70.773438 340.320312 64.617188 340.320312 Z M 64.617188 340.320312 " fill-opacity="1" fill-rule="nonzero"/><path fill="#ffffff" d="M 221.433594 264.117188 C 221.445312 264.292969 221.457031 264.46875 221.46875 264.648438 C 224.511719 265.472656 227.585938 266.210938 230.597656 267.136719 C 237.203125 269.171875 243.289062 272.089844 248.125 277.261719 C 250.625 279.941406 252.03125 283.136719 252.734375 286.578125 C 254.65625 296.046875 249.039062 305.078125 240.871094 309.523438 C 235.847656 312.261719 230.542969 313.433594 224.632812 312.964844 C 216.113281 312.289062 207.628906 311.328125 199.144531 310.417969 C 190.453125 309.488281 181.78125 308.394531 173.085938 307.492188 C 170.289062 307.203125 167.394531 307.070312 164.683594 306.085938 C 160.929688 304.722656 160.070312 301.164062 162.675781 298.191406 C 164.242188 296.402344 166.230469 296.175781 168.300781 296.445312 C 173.558594 297.125 178.855469 297.515625 184.09375 298.261719 C 191.4375 299.3125 198.851562 299.660156 206.183594 300.792969 C 212.339844 301.746094 218.570312 302.027344 224.769531 302.589844 C 228.398438 302.921875 231.757812 302.679688 234.949219 300.871094 C 239.289062 298.40625 241.777344 294.796875 241.519531 289.707031 C 241.28125 284.984375 238.4375 282.082031 234.417969 279.941406 C 229.078125 277.101562 223.207031 275.890625 217.484375 274.324219 C 204.007812 270.632812 190.445312 267.242188 176.902344 263.789062 C 169.136719 261.808594 161.359375 259.871094 153.550781 258.054688 C 148.84375 256.960938 144.074219 256.125 139.328125 255.199219 C 138.078125 254.957031 136.828125 255.101562 135.570312 255.292969 C 130.851562 256.015625 126.246094 257.285156 121.566406 258.199219 C 114.417969 259.597656 107.402344 261.65625 100.265625 263.132812 C 97.953125 263.609375 97.460938 264.558594 97.46875 266.683594 C 97.550781 284.589844 97.566406 302.5 97.5 320.40625 C 97.496094 322.417969 98.191406 323.257812 100.078125 323.59375 C 107.378906 324.902344 114.6875 326.179688 121.953125 327.675781 C 132.328125 329.8125 142.765625 331.589844 153.1875 333.464844 C 165.304688 335.644531 177.417969 337.875 189.613281 339.636719 C 194.585938 340.355469 199.589844 340.875 204.554688 341.652344 C 205.414062 341.789062 206.269531 341.695312 207.117188 341.480469 C 210.984375 340.507812 214.789062 339.308594 218.371094 337.5625 C 229.625 332.066406 240.882812 326.605469 251.765625 320.351562 C 265.898438 312.226562 280.070312 304.175781 293.957031 295.628906 C 301.179688 291.183594 308.460938 286.835938 315.699219 282.414062 C 319.9375 279.824219 324.214844 277.273438 328.355469 274.527344 C 333.292969 271.253906 334.46875 265.4375 331.871094 260.609375 C 328.457031 254.265625 319.65625 253.117188 313.695312 256.515625 C 310.878906 258.117188 307.996094 259.597656 305.121094 261.097656 C 296.199219 265.753906 287.273438 270.410156 278.332031 275.035156 C 274.921875 276.800781 271.71875 279.003906 268.03125 280.175781 C 265.164062 281.089844 262.175781 279.707031 261.207031 277.265625 C 260.230469 274.8125 261.230469 272.402344 264.09375 270.875 C 275.792969 264.644531 287.519531 258.472656 299.234375 252.273438 C 299.746094 252 300.519531 251.867188 300.539062 251.195312 C 300.5625 250.425781 299.777344 250.136719 299.191406 249.90625 C 295.054688 248.273438 290.863281 247.644531 286.683594 249.6875 C 284.839844 250.585938 283.148438 251.785156 281.3125 252.6875 C 273.996094 256.285156 266.910156 260.3125 259.664062 264.039062 C 257.382812 265.210938 255.136719 266.570312 252.609375 267.214844 C 249.894531 267.910156 247.21875 266.554688 246.054688 263.988281 C 245.175781 262.054688 246 259.882812 248.289062 258.210938 C 248.769531 257.863281 249.304688 257.585938 249.832031 257.304688 C 253.390625 255.386719 256.945312 253.460938 260.515625 251.570312 C 261.519531 251.039062 261.707031 250.648438 260.570312 250.011719 C 257.125 248.082031 253.527344 247.617188 249.867188 249.113281 C 245.820312 250.765625 242.085938 253.070312 238.246094 255.148438 C 232.660156 258.167969 227.039062 261.128906 221.433594 264.117188 " fill-opacity="1" fill-rule="nonzero"/><path fill="#083c71" d="M 169.871094 83.113281 L 146.84375 87.019531 C 145.652344 84.097656 144.589844 82.070312 143.644531 80.945312 C 142.707031 79.816406 141.152344 78.6875 138.988281 77.550781 L 139.183594 95.492188 C 151.785156 98.710938 160.214844 102.160156 164.476562 105.835938 C 170.109375 110.785156 172.964844 117.105469 173.050781 124.800781 C 173.097656 129.308594 172.140625 133.460938 170.175781 137.246094 C 168.207031 141.03125 165.679688 144.203125 162.585938 146.757812 C 159.492188 149.316406 156.191406 151.183594 152.691406 152.359375 C 149.1875 153.53125 144.898438 154.25 139.8125 154.511719 L 139.941406 166.234375 L 130.886719 166.332031 L 130.761719 154.609375 C 124.675781 154.136719 119.734375 153.207031 115.9375 151.824219 C 112.140625 150.4375 108.851562 148.496094 106.074219 146.003906 C 103.296875 143.511719 101.152344 140.820312 99.632812 137.917969 C 98.109375 135.019531 96.960938 131.507812 96.171875 127.382812 L 121.191406 124.199219 C 121.976562 128.28125 123.011719 131.230469 124.292969 133.035156 C 125.574219 134.839844 127.667969 136.429688 130.582031 137.804688 L 130.34375 115.890625 C 121.96875 113.664062 116.027344 111.71875 112.511719 110.058594 C 109 108.398438 105.941406 105.714844 103.339844 101.996094 C 100.734375 98.277344 99.40625 93.734375 99.347656 88.355469 C 99.269531 80.988281 101.777344 74.804688 106.871094 69.808594 C 111.964844 64.808594 119.597656 61.984375 129.761719 61.339844 L 129.695312 55.199219 L 138.75 55.101562 L 138.816406 61.242188 C 148.082031 61.722656 155.183594 63.835938 160.125 67.589844 C 165.066406 71.339844 168.316406 76.515625 169.871094 83.113281 M 129.929688 77.339844 C 127.296875 78.242188 125.464844 79.339844 124.445312 80.640625 C 123.425781 81.941406 122.929688 83.460938 122.945312 85.203125 C 122.964844 87.035156 123.507812 88.617188 124.566406 89.957031 C 125.632812 91.292969 127.476562 92.40625 130.101562 93.285156 Z M 139.640625 138.328125 C 143.144531 137.503906 145.707031 136.179688 147.320312 134.355469 C 148.933594 132.535156 149.730469 130.507812 149.703125 128.261719 C 149.683594 126.3125 148.976562 124.527344 147.574219 122.902344 C 146.175781 121.277344 143.460938 119.785156 139.425781 118.425781 Z M 139.640625 138.328125 " fill-opacity="1" fill-rule="nonzero"/><path fill="#083c71" d="M 220.363281 118.257812 C 219.269531 118.113281 218.332031 117.542969 217.703125 116.765625 C 217.078125 115.984375 216.757812 114.996094 216.8125 113.945312 C 216.894531 112.898438 217.414062 111.984375 218.191406 111.324219 C 218.960938 110.667969 219.949219 110.265625 221.058594 110.308594 C 222.152344 110.355469 223.160156 110.847656 223.832031 111.628906 C 224.5 112.414062 224.867188 113.484375 224.78125 114.636719 C 224.710938 115.789062 224.132812 116.78125 223.316406 117.433594 C 222.5 118.089844 221.453125 118.40625 220.363281 118.257812 " fill-opacity="1" fill-rule="evenodd"/><path fill="#083c71" d="M 217.070312 133.09375 C 215 132.417969 213.75 130.234375 214.320312 128.226562 C 214.863281 126.214844 216.945312 124.921875 219.121094 125.382812 C 221.261719 125.828125 222.648438 128.046875 222.042969 130.292969 C 221.410156 132.527344 219.191406 133.789062 217.070312 133.09375 " fill-opacity="1" fill-rule="evenodd"/><path fill="#083c71" d="M 152.648438 191.851562 C 152.191406 189.675781 153.484375 187.59375 155.496094 187.050781 C 157.5 186.484375 159.6875 187.734375 160.363281 189.800781 C 161.054688 191.925781 159.796875 194.144531 157.5625 194.777344 C 155.316406 195.378906 153.097656 193.992188 152.648438 191.851562 " fill-opacity="1" fill-rule="evenodd"/><path fill="#083c71" d="M 137.578125 193.789062 C 137.53125 192.683594 137.933594 191.695312 138.59375 190.921875 C 139.25 190.144531 140.167969 189.625 141.214844 189.546875 C 142.265625 189.488281 143.253906 189.808594 144.035156 190.433594 C 144.8125 191.066406 145.382812 192.003906 145.527344 193.09375 C 145.671875 194.1875 145.355469 195.234375 144.699219 196.046875 C 144.046875 196.863281 143.054688 197.445312 141.90625 197.511719 C 140.753906 197.601562 139.679688 197.234375 138.898438 196.566406 C 138.113281 195.894531 137.621094 194.886719 137.578125 193.789062 " fill-opacity="1" fill-rule="evenodd"/><path fill="#083c71" d="M 122.394531 193.09375 C 122.542969 192.003906 123.113281 191.066406 123.890625 190.433594 C 124.667969 189.808594 125.65625 189.488281 126.707031 189.546875 C 127.757812 189.625 128.671875 190.148438 129.332031 190.921875 C 129.988281 191.695312 130.390625 192.683594 130.347656 193.789062 C 130.300781 194.886719 129.808594 195.894531 129.023438 196.566406 C 128.246094 197.234375 127.171875 197.601562 126.019531 197.511719 C 124.867188 197.445312 123.875 196.863281 123.222656 196.046875 C 122.566406 195.234375 122.25 194.1875 122.394531 193.09375 " fill-opacity="1" fill-rule="evenodd"/><path fill="#083c71" d="M 107.558594 189.800781 C 108.238281 187.734375 110.421875 186.484375 112.425781 187.050781 C 114.4375 187.59375 115.730469 189.675781 115.273438 191.851562 C 114.824219 193.992188 112.605469 195.382812 110.363281 194.777344 C 108.125 194.144531 106.867188 191.925781 107.558594 189.800781 " fill-opacity="1" fill-rule="evenodd"/><path fill="#083c71" d="M 93.480469 183.941406 C 93.996094 182.964844 94.859375 182.28125 95.8125 181.953125 C 96.769531 181.621094 97.800781 181.679688 98.773438 182.089844 C 99.734375 182.523438 100.417969 183.324219 100.773438 184.277344 C 101.125 185.234375 101.164062 186.296875 100.738281 187.324219 C 100.320312 188.335938 99.507812 189.117188 98.539062 189.476562 C 97.570312 189.832031 96.429688 189.8125 95.375 189.335938 C 94.308594 188.878906 93.582031 187.96875 93.242188 186.992188 C 92.90625 186.007812 92.96875 184.917969 93.480469 183.941406 " fill-opacity="1" fill-rule="evenodd"/><path fill="#083c71" d="M 80.746094 175.738281 C 81.421875 174.863281 82.378906 174.347656 83.363281 174.199219 C 84.359375 174.035156 85.40625 174.214844 86.257812 174.828125 C 86.6875 175.132812 87.03125 175.515625 87.292969 175.949219 C 87.5625 176.363281 87.75 176.828125 87.84375 177.320312 C 88.035156 178.304688 87.871094 179.386719 87.28125 180.320312 C 86.691406 181.25 85.777344 181.847656 84.75 182.050781 C 84.238281 182.152344 83.703125 182.15625 83.167969 182.054688 C 82.648438 181.933594 82.136719 181.707031 81.667969 181.375 C 80.730469 180.703125 80.132812 179.742188 79.96875 178.71875 C 79.816406 177.679688 80.070312 176.609375 80.746094 175.738281 " fill-opacity="1" fill-rule="evenodd"/><path fill="#083c71" d="M 69.554688 165.457031 C 71.195312 163.980469 73.699219 164.007812 75.136719 165.515625 C 76.648438 166.953125 76.671875 169.457031 75.199219 171.101562 C 73.726562 172.742188 71.164062 172.777344 69.484375 171.171875 C 67.878906 169.492188 67.914062 166.929688 69.554688 165.457031 " fill-opacity="1" fill-rule="evenodd"/><path fill="#083c71" d="M 60.335938 153.371094 C 61.269531 152.78125 62.351562 152.617188 63.332031 152.808594 C 63.824219 152.90625 64.292969 153.09375 64.707031 153.363281 C 65.140625 153.625 65.523438 153.96875 65.828125 154.394531 C 66.441406 155.25 66.617188 156.292969 66.457031 157.292969 C 66.308594 158.273438 65.789062 159.234375 64.917969 159.910156 C 64.046875 160.582031 62.976562 160.839844 61.9375 160.683594 C 60.914062 160.523438 59.953125 159.925781 59.28125 158.988281 C 58.949219 158.519531 58.722656 158.007812 58.601562 157.484375 C 58.5 156.953125 58.503906 156.414062 58.605469 155.902344 C 58.804688 154.878906 59.40625 153.960938 60.335938 153.371094 " fill-opacity="1" fill-rule="evenodd"/><path fill="#083c71" d="M 53.332031 139.886719 C 54.359375 139.464844 55.421875 139.503906 56.375 139.855469 C 57.328125 140.210938 58.132812 140.890625 58.5625 141.851562 C 58.976562 142.816406 59.035156 143.84375 58.703125 144.796875 C 58.375 145.746094 57.691406 146.605469 56.710938 147.117188 C 55.738281 147.632812 54.648438 147.691406 53.660156 147.355469 C 52.683594 147.015625 51.777344 146.296875 51.320312 145.234375 C 50.84375 144.183594 50.820312 143.046875 51.179688 142.082031 C 51.535156 141.113281 52.320312 140.304688 53.332031 139.886719 " fill-opacity="1" fill-rule="evenodd"/><path fill="#083c71" d="M 48.800781 125.382812 C 50.976562 124.921875 53.058594 126.21875 53.601562 128.230469 C 54.171875 130.234375 52.921875 132.417969 50.851562 133.09375 C 48.730469 133.789062 46.511719 132.53125 45.878906 130.292969 C 45.273438 128.050781 46.660156 125.828125 48.800781 125.382812 " fill-opacity="1" fill-rule="evenodd"/><path fill="#083c71" d="M 46.863281 110.308594 C 47.972656 110.265625 48.960938 110.667969 49.730469 111.324219 C 50.507812 111.984375 51.027344 112.898438 51.105469 113.949219 C 51.167969 114.996094 50.84375 115.984375 50.21875 116.765625 C 49.589844 117.542969 48.652344 118.113281 47.558594 118.257812 C 46.464844 118.40625 45.417969 118.089844 44.609375 117.433594 C 43.789062 116.78125 43.210938 115.789062 43.140625 114.636719 C 43.054688 113.484375 43.421875 112.414062 44.089844 111.628906 C 44.761719 110.84375 45.769531 110.351562 46.863281 110.308594 " fill-opacity="1" fill-rule="evenodd"/><path fill="#083c71" d="M 47.558594 95.128906 C 48.652344 95.273438 49.585938 95.84375 50.21875 96.621094 C 50.84375 97.402344 51.167969 98.390625 51.105469 99.441406 C 51.027344 100.488281 50.507812 101.402344 49.730469 102.0625 C 48.960938 102.722656 47.972656 103.121094 46.863281 103.078125 C 45.769531 103.035156 44.757812 102.542969 44.085938 101.757812 C 43.421875 100.976562 43.054688 99.902344 43.140625 98.75 C 43.210938 97.597656 43.789062 96.605469 44.605469 95.953125 C 45.417969 95.296875 46.464844 94.980469 47.558594 95.128906 " fill-opacity="1" fill-rule="evenodd"/><path fill="#083c71" d="M 50.851562 80.292969 C 52.921875 80.96875 54.171875 83.152344 53.601562 85.160156 C 53.058594 87.171875 50.976562 88.464844 48.800781 88.003906 C 46.660156 87.558594 45.273438 85.339844 45.878906 83.09375 C 46.511719 80.855469 48.730469 79.597656 50.851562 80.292969 " fill-opacity="1" fill-rule="evenodd"/><path fill="#083c71" d="M 56.714844 66.269531 C 57.691406 66.785156 58.375 67.640625 58.703125 68.59375 C 59.035156 69.546875 58.976562 70.574219 58.5625 71.539062 C 58.128906 72.496094 57.328125 73.179688 56.375 73.53125 C 55.421875 73.882812 54.359375 73.921875 53.332031 73.5 C 52.316406 73.082031 51.535156 72.273438 51.179688 71.308594 C 50.820312 70.34375 50.84375 69.207031 51.320312 68.15625 C 51.773438 67.09375 52.683594 66.375 53.660156 66.035156 C 54.644531 65.695312 55.738281 65.757812 56.714844 66.269531 " fill-opacity="1" fill-rule="evenodd"/><path fill="#083c71" d="M 64.917969 53.480469 C 65.789062 54.15625 66.308594 55.113281 66.453125 56.097656 C 66.617188 57.09375 66.4375 58.136719 65.824219 58.992188 C 65.519531 59.421875 65.136719 59.765625 64.707031 60.023438 C 64.292969 60.296875 63.824219 60.484375 63.332031 60.578125 C 62.351562 60.769531 61.265625 60.605469 60.335938 60.015625 C 59.40625 59.425781 58.804688 58.511719 58.601562 57.484375 C 58.5 56.972656 58.5 56.433594 58.601562 55.902344 C 58.71875 55.382812 58.945312 54.871094 59.28125 54.402344 C 59.953125 53.460938 60.910156 52.867188 61.933594 52.703125 C 62.976562 52.546875 64.042969 52.804688 64.917969 53.480469 " fill-opacity="1" fill-rule="evenodd"/><path fill="#083c71" d="M 75.199219 42.285156 C 76.671875 43.925781 76.648438 46.433594 75.136719 47.871094 C 73.699219 49.382812 71.195312 49.40625 69.554688 47.929688 C 67.914062 46.457031 67.878906 43.898438 69.484375 42.21875 C 71.164062 40.613281 73.726562 40.644531 75.199219 42.285156 " fill-opacity="1" fill-rule="evenodd"/><path fill="#083c71" d="M 87.28125 33.070312 C 87.871094 34 88.035156 35.082031 87.84375 36.066406 C 87.75 36.558594 87.5625 37.023438 87.289062 37.441406 C 87.03125 37.871094 86.6875 38.253906 86.257812 38.558594 C 85.402344 39.171875 84.359375 39.351562 83.363281 39.1875 C 82.378906 39.039062 81.421875 38.519531 80.746094 37.648438 C 80.070312 36.777344 79.816406 35.707031 79.96875 34.667969 C 80.132812 33.644531 80.726562 32.683594 81.667969 32.011719 C 82.136719 31.679688 82.648438 31.453125 83.167969 31.332031 C 83.699219 31.230469 84.238281 31.234375 84.75 31.335938 C 85.777344 31.539062 86.691406 32.136719 87.28125 33.070312 " fill-opacity="1" fill-rule="evenodd"/><path fill="#083c71" d="M 100.765625 26.0625 C 101.1875 27.089844 101.148438 28.152344 100.796875 29.109375 C 100.445312 30.0625 99.761719 30.863281 98.804688 31.296875 C 97.839844 31.707031 96.8125 31.765625 95.859375 31.433594 C 94.910156 31.105469 94.050781 30.421875 93.539062 29.445312 C 93.023438 28.46875 92.964844 27.378906 93.300781 26.394531 C 93.640625 25.414062 94.359375 24.507812 95.421875 24.050781 C 96.472656 23.574219 97.609375 23.554688 98.574219 23.910156 C 99.539062 24.269531 100.351562 25.050781 100.765625 26.0625 " fill-opacity="1" fill-rule="evenodd"/><path fill="#083c71" d="M 115.273438 21.53125 C 115.730469 23.710938 114.4375 25.792969 112.425781 26.335938 C 110.417969 26.902344 108.234375 25.652344 107.558594 23.585938 C 106.867188 21.460938 108.121094 19.242188 110.359375 18.609375 C 112.605469 18.007812 114.824219 19.394531 115.273438 21.53125 " fill-opacity="1" fill-rule="evenodd"/><path fill="#083c71" d="M 130.347656 19.597656 C 130.390625 20.707031 129.988281 21.695312 129.328125 22.464844 C 128.671875 23.242188 127.753906 23.761719 126.707031 23.839844 C 125.65625 23.898438 124.667969 23.578125 123.886719 22.949219 C 123.113281 22.320312 122.542969 21.382812 122.394531 20.292969 C 122.25 19.199219 122.566406 18.152344 123.222656 17.339844 C 123.875 16.523438 124.867188 15.941406 126.019531 15.875 C 127.167969 15.785156 128.242188 16.152344 129.023438 16.820312 C 129.808594 17.492188 130.300781 18.5 130.347656 19.597656 " fill-opacity="1" fill-rule="evenodd"/><path fill="#083c71" d="M 145.527344 20.292969 C 145.382812 21.382812 144.8125 22.320312 144.03125 22.949219 C 143.253906 23.574219 142.265625 23.898438 141.214844 23.839844 C 140.164062 23.757812 139.25 23.238281 138.589844 22.464844 C 137.933594 21.695312 137.53125 20.707031 137.578125 19.597656 C 137.621094 18.5 138.113281 17.492188 138.898438 16.820312 C 139.679688 16.152344 140.753906 15.785156 141.902344 15.875 C 143.054688 15.941406 144.046875 16.523438 144.699219 17.339844 C 145.355469 18.152344 145.671875 19.199219 145.527344 20.292969 " fill-opacity="1" fill-rule="evenodd"/><path fill="#083c71" d="M 160.363281 23.585938 C 159.6875 25.652344 157.5 26.902344 155.496094 26.335938 C 153.484375 25.792969 152.191406 23.710938 152.648438 21.53125 C 153.097656 19.394531 155.316406 18.003906 157.558594 18.609375 C 159.796875 19.242188 161.054688 21.460938 160.363281 23.585938 " fill-opacity="1" fill-rule="evenodd"/><path fill="#083c71" d="M 174.382812 29.445312 C 173.871094 30.421875 173.011719 31.105469 172.0625 31.433594 C 171.109375 31.769531 170.082031 31.707031 169.113281 31.296875 C 168.15625 30.863281 167.476562 30.0625 167.121094 29.109375 C 166.773438 28.152344 166.730469 27.089844 167.15625 26.0625 C 167.570312 25.050781 168.382812 24.269531 169.347656 23.914062 C 170.308594 23.554688 171.445312 23.574219 172.5 24.050781 C 173.558594 24.507812 174.28125 25.417969 174.621094 26.394531 C 174.957031 27.378906 174.894531 28.472656 174.382812 29.445312 " fill-opacity="1" fill-rule="evenodd"/><path fill="#083c71" d="M 187.175781 37.648438 C 186.5 38.523438 185.542969 39.039062 184.558594 39.1875 C 183.5625 39.351562 182.515625 39.171875 181.660156 38.558594 C 181.234375 38.253906 180.890625 37.871094 180.628906 37.4375 C 180.355469 37.023438 180.171875 36.558594 180.074219 36.066406 C 179.882812 35.082031 180.050781 34 180.640625 33.070312 C 181.230469 32.136719 182.144531 31.539062 183.167969 31.335938 C 183.683594 31.234375 184.21875 31.234375 184.753906 31.332031 C 185.273438 31.453125 185.78125 31.679688 186.253906 32.011719 C 187.191406 32.683594 187.789062 33.644531 187.953125 34.667969 C 188.105469 35.707031 187.851562 36.777344 187.175781 37.648438 " fill-opacity="1" fill-rule="evenodd"/><path fill="#083c71" d="M 198.367188 47.929688 C 196.726562 49.40625 194.222656 49.378906 192.78125 47.871094 C 191.269531 46.429688 191.25 43.929688 192.722656 42.285156 C 194.195312 40.644531 196.757812 40.609375 198.4375 42.214844 C 200.042969 43.894531 200.007812 46.457031 198.367188 47.929688 " fill-opacity="1" fill-rule="evenodd"/><path fill="#083c71" d="M 207.585938 60.015625 C 206.652344 60.605469 205.570312 60.769531 204.589844 60.578125 C 204.097656 60.480469 203.628906 60.296875 203.214844 60.023438 C 202.78125 59.761719 202.398438 59.417969 202.09375 58.992188 C 201.484375 58.136719 201.304688 57.09375 201.464844 56.09375 C 201.613281 55.113281 202.132812 54.152344 203.003906 53.480469 C 203.875 52.804688 204.945312 52.546875 205.984375 52.703125 C 207.007812 52.863281 207.96875 53.460938 208.640625 54.398438 C 208.976562 54.871094 209.203125 55.378906 209.320312 55.898438 C 209.421875 56.433594 209.417969 56.972656 209.316406 57.484375 C 209.117188 58.507812 208.515625 59.421875 207.585938 60.015625 " fill-opacity="1" fill-rule="evenodd"/><path fill="#083c71" d="M 214.589844 73.5 C 213.5625 73.921875 212.5 73.882812 211.546875 73.53125 C 210.589844 73.179688 209.789062 72.496094 209.355469 71.539062 C 208.945312 70.570312 208.886719 69.542969 209.21875 68.589844 C 209.546875 67.640625 210.230469 66.78125 211.207031 66.269531 C 212.183594 65.757812 213.273438 65.695312 214.261719 66.03125 C 215.238281 66.371094 216.148438 67.09375 216.601562 68.152344 C 217.078125 69.203125 217.101562 70.34375 216.742188 71.304688 C 216.386719 72.273438 215.605469 73.082031 214.589844 73.5 " fill-opacity="1" fill-rule="evenodd"/><path fill="#083c71" d="M 219.121094 88.003906 C 216.945312 88.464844 214.863281 87.167969 214.320312 85.15625 C 213.75 83.152344 215 80.96875 217.070312 80.292969 C 219.191406 79.601562 221.410156 80.855469 222.042969 83.09375 C 222.648438 85.335938 221.261719 87.558594 219.121094 88.003906 " fill-opacity="1" fill-rule="evenodd"/><path fill="#083c71" d="M 221.058594 103.078125 C 219.949219 103.125 218.960938 102.722656 218.191406 102.0625 C 217.414062 101.402344 216.890625 100.488281 216.8125 99.4375 C 216.753906 98.390625 217.078125 97.402344 217.703125 96.621094 C 218.335938 95.84375 219.269531 95.273438 220.363281 95.128906 C 221.453125 94.984375 222.503906 95.296875 223.3125 95.953125 C 224.132812 96.609375 224.710938 97.597656 224.777344 98.75 C 224.867188 99.902344 224.5 100.976562 223.832031 101.757812 C 223.160156 102.542969 222.152344 103.035156 221.058594 103.078125 " fill-opacity="1" fill-rule="evenodd"/><path fill="#083c71" d="M 216.761719 188.265625 C 211.390625 188.265625 206.015625 186.269531 201.894531 182.273438 L 184.328125 165.222656 C 181.195312 162.179688 181.121094 157.171875 184.164062 154.035156 C 187.207031 150.902344 192.214844 150.824219 195.351562 153.867188 L 212.914062 170.917969 C 215.070312 173.007812 218.550781 172.984375 220.675781 170.859375 L 297.46875 94.066406 C 300.558594 90.976562 305.566406 90.976562 308.65625 94.066406 C 311.746094 97.15625 311.746094 102.167969 308.65625 105.253906 L 231.863281 182.046875 C 227.71875 186.1875 222.242188 188.265625 216.761719 188.265625 " fill-opacity="1" fill-rule="nonzero"/></svg>