<svg xmlns="http://www.w3.org/2000/svg" xmlns:xlink="http://www.w3.org/1999/xlink" width="500" zoomAndPan="magnify" viewBox="0 0 375 374.999991" height="500" preserveAspectRatio="xMidYMid meet" version="1.0"><defs><clipPath id="c51ed36143"><path d="M 262 257 L 374 257 L 374 369.375 L 262 369.375 Z M 262 257 " clip-rule="nonzero"/></clipPath><clipPath id="4d6dacf089"><path d="M 1 240 L 131 240 L 131 369.375 L 1 369.375 Z M 1 240 " clip-rule="nonzero"/></clipPath></defs><rect x="-37.5" width="450" fill="#ffffff" y="-37.499999" height="449.999989" fill-opacity="1"/><rect x="-37.5" width="450" fill="#ffffff" y="-37.499999" height="449.999989" fill-opacity="1"/><path fill="#083c71" d="M 187.28125 354.320312 C 157.824219 354.320312 128.800781 346.464844 103.492188 331.625 C 98.691406 328.789062 103.054688 321.152344 107.855469 323.988281 C 156.078125 352.136719 215.867188 352.574219 264.308594 325.515625 C 269.328125 322.679688 273.691406 330.316406 268.671875 332.933594 C 244.015625 346.898438 215.867188 354.320312 187.28125 354.320312 Z M 44.136719 267.910156 C 42.609375 267.910156 41.082031 267.035156 40.210938 265.507812 C 15.554688 218.59375 14.679688 162.296875 38.027344 114.726562 C 40.429688 109.492188 48.285156 113.417969 45.882812 118.65625 C 23.628906 163.605469 24.5 217.066406 47.847656 261.363281 C 49.59375 264.417969 47.410156 267.910156 44.136719 267.910156 Z M 331.296875 266.601562 C 328.023438 266.601562 325.84375 263.109375 327.371094 260.273438 C 349.84375 216.847656 350.9375 165.351562 330.207031 121.273438 C 327.808594 116.039062 335.660156 112.328125 338.0625 117.566406 C 359.882812 164.042969 358.792969 218.375 335.226562 264.199219 C 334.351562 265.726562 332.824219 266.601562 331.296875 266.601562 Z M 278.710938 58.429688 C 273.035156 58.429688 244.671875 30.28125 187.28125 30.28125 C 160.007812 30.28125 133.167969 37.484375 109.601562 50.792969 C 104.582031 53.628906 100.21875 45.992188 105.234375 43.15625 C 160.222656 11.953125 228.742188 14.570312 281.109375 50.574219 C 284.601562 52.976562 282.855469 58.429688 278.710938 58.429688 Z M 278.710938 58.429688 " fill-opacity="1" fill-rule="evenodd"/><path fill="#083c71" d="M 368.828125 123.675781 L 238.996094 123.675781 C 235.722656 123.675781 233.542969 119.964844 235.289062 117.128906 L 301.402344 8.460938 C 302.929688 5.625 307.078125 5.625 308.824219 8.460938 L 372.320312 116.472656 C 374.9375 120.183594 372.101562 123.675781 368.828125 123.675781 Z M 246.851562 114.945312 L 361.191406 114.945312 L 304.894531 19.152344 Z M 246.851562 114.945312 " fill-opacity="1" fill-rule="evenodd"/><g clip-path="url(#c51ed36143)"><path fill="#083c71" d="M 360.753906 369.375 L 274.78125 369.375 C 267.800781 369.375 262.125 363.703125 262.125 356.71875 L 262.125 270.527344 C 262.125 263.542969 267.800781 257.871094 274.78125 257.871094 L 360.753906 257.871094 C 367.738281 257.871094 373.628906 263.542969 373.628906 270.527344 L 373.628906 356.71875 C 373.628906 363.703125 367.738281 369.375 360.753906 369.375 Z M 274.78125 266.601562 C 272.601562 266.601562 270.855469 268.34375 270.855469 270.527344 L 270.855469 356.71875 C 270.855469 358.902344 272.601562 360.648438 274.78125 360.648438 L 360.753906 360.648438 C 362.9375 360.648438 364.902344 358.902344 364.902344 356.71875 L 364.902344 270.527344 C 364.902344 268.34375 362.9375 266.601562 360.753906 266.601562 Z M 274.78125 266.601562 " fill-opacity="1" fill-rule="evenodd"/></g><path fill="#083c71" d="M 58.539062 123.675781 C 27.117188 123.675781 1.371094 98.144531 1.371094 66.722656 C 1.371094 35.300781 27.117188 9.550781 58.539062 9.550781 C 89.960938 9.550781 115.492188 35.300781 115.492188 66.722656 C 115.492188 98.144531 89.960938 123.675781 58.539062 123.675781 Z M 58.539062 18.28125 C 31.917969 18.28125 10.097656 40.101562 10.097656 66.722656 C 10.097656 93.34375 31.917969 114.945312 58.539062 114.945312 C 85.160156 114.945312 106.761719 93.34375 106.761719 66.722656 C 106.761719 40.101562 85.160156 18.28125 58.539062 18.28125 Z M 58.539062 18.28125 " fill-opacity="1" fill-rule="evenodd"/><g clip-path="url(#4d6dacf089)"><path fill="#083c71" d="M 65.523438 369.375 C 62.46875 369.375 59.414062 368.285156 57.230469 366.101562 L 4.644531 313.296875 C 0.0625 308.714844 0.0625 301.292969 4.644531 296.929688 L 57.449219 244.125 C 61.8125 239.542969 69.449219 239.542969 73.816406 244.125 L 126.621094 296.710938 C 131.203125 301.292969 131.203125 308.714844 126.621094 313.296875 L 73.816406 366.101562 C 71.632812 368.285156 68.578125 369.375 65.523438 369.375 Z M 65.523438 249.363281 C 64.867188 249.363281 63.996094 249.578125 63.558594 250.234375 L 10.753906 303.039062 C 9.660156 304.132812 9.660156 306.09375 10.753906 307.1875 L 63.339844 359.773438 C 64.429688 360.863281 66.394531 360.863281 67.488281 359.773438 L 120.292969 306.96875 C 121.601562 305.875 121.601562 304.132812 120.292969 302.820312 L 67.703125 250.234375 C 67.050781 249.578125 66.394531 249.363281 65.523438 249.363281 Z M 65.523438 249.363281 " fill-opacity="1" fill-rule="evenodd"/></g><path fill="#083c71" d="M 218.265625 152.914062 C 209.101562 152.914062 197.539062 133.277344 190.117188 133.277344 C 187.0625 133.277344 184.007812 139.167969 177.460938 138.078125 C 160.007812 135.238281 163.277344 152.476562 155.640625 151.824219 C 153.679688 151.605469 152.152344 150.078125 151.933594 148.332031 C 150.625 142.003906 146.039062 108.183594 167.425781 109.054688 C 180.515625 82.652344 233.542969 107.964844 222.847656 149.640625 C 222.195312 151.824219 220.449219 152.914062 218.265625 152.914062 Z M 190.117188 124.546875 C 199.5 124.546875 208.449219 136.332031 215.429688 142.222656 C 218.484375 112.765625 180.082031 95.960938 174.1875 115.164062 C 171.570312 123.894531 158.914062 107.527344 159.132812 134.804688 C 164.371094 130.003906 170.917969 128.257812 178.988281 129.347656 C 180.515625 129.566406 184.226562 124.546875 190.117188 124.546875 Z M 190.117188 124.546875 " fill-opacity="1" fill-rule="evenodd"/><path fill="#083c71" d="M 187.28125 198.957031 C 167.644531 198.957031 151.714844 180.84375 151.714844 158.804688 C 151.714844 151.386719 150.1875 143.09375 156.078125 143.09375 C 161.96875 143.09375 160.441406 151.386719 160.441406 158.804688 C 160.441406 176.042969 172.445312 190.226562 187.28125 190.226562 C 202.121094 190.226562 214.121094 176.042969 214.121094 158.804688 C 214.121094 152.042969 212.8125 144.1875 218.484375 144.1875 C 224.375 144.1875 222.847656 152.042969 222.847656 158.804688 C 222.847656 180.84375 206.921875 198.957031 187.28125 198.957031 Z M 187.28125 198.957031 " fill-opacity="1" fill-rule="evenodd"/><path fill="#083c71" d="M 203.429688 213.140625 C 201.027344 213.140625 199.066406 211.175781 199.066406 208.773438 L 199.066406 189.355469 C 199.066406 183.679688 207.792969 183.679688 207.792969 189.355469 L 207.792969 208.773438 C 207.792969 211.175781 205.828125 213.140625 203.429688 213.140625 Z M 171.351562 213.140625 C 168.953125 213.140625 166.988281 211.175781 166.988281 208.773438 L 166.988281 189.355469 C 166.988281 183.679688 175.71875 183.679688 175.71875 189.355469 L 175.71875 208.773438 C 175.71875 211.175781 173.753906 213.140625 171.351562 213.140625 Z M 171.351562 213.140625 " fill-opacity="1" fill-rule="evenodd"/><path fill="#083c71" d="M 246.851562 277.511719 L 127.929688 277.511719 C 125.53125 277.511719 123.566406 275.546875 123.566406 273.144531 L 123.785156 234.742188 C 123.785156 216.847656 151.933594 204.410156 166.988281 204.410156 C 170.042969 204.410156 175.71875 203.757812 175.71875 208.773438 C 175.71875 213.792969 170.042969 213.140625 166.988281 213.140625 C 154.332031 213.140625 132.511719 223.832031 132.511719 234.742188 L 132.292969 268.78125 L 242.488281 268.78125 L 242.269531 235.179688 C 240.304688 224.269531 220.667969 213.140625 207.574219 213.140625 C 204.738281 213.140625 199.066406 213.792969 199.066406 208.773438 C 199.066406 203.757812 204.738281 204.410156 207.574219 204.410156 C 225.03125 204.410156 250.78125 219.683594 250.996094 234.742188 L 251.214844 273.144531 C 251.214844 275.546875 249.253906 277.511719 246.851562 277.511719 Z M 246.851562 277.511719 " fill-opacity="1" fill-rule="evenodd"/><path fill="#083c71" d="M 144.730469 277.511719 C 142.332031 277.511719 140.367188 275.765625 140.367188 273.363281 C 138.621094 224.484375 155.421875 238.234375 152.152344 244.34375 C 149.3125 249.796875 148.878906 264.855469 149.09375 272.929688 C 149.09375 275.546875 147.132812 277.511719 144.730469 277.511719 Z M 144.730469 277.511719 " fill-opacity="1" fill-rule="evenodd"/><path fill="#083c71" d="M 230.050781 277.511719 C 227.648438 277.511719 225.6875 275.546875 225.6875 273.144531 C 225.90625 264.855469 225.25 249.796875 222.632812 244.34375 C 219.359375 238.234375 235.941406 224.484375 234.414062 273.363281 C 234.414062 275.765625 232.449219 277.511719 230.050781 277.511719 Z M 230.050781 277.511719 " fill-opacity="1" fill-rule="evenodd"/><path fill="#083c71" d="M 189.683594 250.015625 C 182.699219 250.015625 174.40625 249.578125 172.445312 239.761719 C 171.132812 234.085938 179.644531 232.125 180.953125 237.796875 C 181.828125 242.597656 192.738281 242.816406 193.828125 237.796875 C 195.136719 232.125 203.648438 234.085938 202.339844 239.761719 C 201.027344 245.652344 195.792969 250.015625 189.683594 250.015625 Z M 189.683594 250.015625 " fill-opacity="1" fill-rule="evenodd"/><path fill="#083c71" d="M 197.753906 277.511719 L 178.117188 277.511719 C 175.5 277.511719 173.535156 275.109375 173.753906 272.492188 L 178.117188 244.5625 C 178.988281 238.886719 187.71875 240.195312 186.84375 245.871094 L 183.355469 268.78125 L 192.738281 268.78125 L 189.027344 245.433594 C 188.15625 239.761719 196.882812 238.449219 197.753906 244.125 L 202.121094 272.492188 C 202.554688 275.109375 200.375 277.511719 197.753906 277.511719 Z M 197.753906 277.511719 " fill-opacity="1" fill-rule="evenodd"/><path fill="#083c71" d="M 202.339844 248.488281 C 201.027344 248.488281 199.71875 247.835938 198.847656 246.742188 L 184.007812 227.976562 C 182.480469 226.230469 182.699219 223.613281 184.226562 222.085938 L 200.15625 205.71875 C 204.300781 201.574219 210.410156 207.683594 206.484375 211.828125 L 193.171875 225.578125 L 201.246094 235.832031 L 213.464844 208.558594 C 215.867188 203.320312 223.722656 206.8125 221.539062 212.046875 L 206.265625 245.871094 Z M 202.339844 248.488281 " fill-opacity="1" fill-rule="evenodd"/><path fill="#083c71" d="M 172.445312 248.488281 L 168.515625 245.871094 L 153.242188 212.046875 C 150.839844 206.8125 158.914062 203.101562 161.316406 208.339844 L 173.535156 235.613281 L 181.609375 225.578125 L 168.296875 211.828125 C 164.152344 207.683594 170.480469 201.574219 174.40625 205.71875 L 190.554688 222.085938 C 192.082031 223.613281 192.082031 226.230469 190.773438 227.976562 L 175.933594 246.742188 C 175.0625 247.835938 173.753906 248.488281 172.445312 248.488281 Z M 172.445312 248.488281 " fill-opacity="1" fill-rule="evenodd"/></svg>