<svg xmlns="http://www.w3.org/2000/svg" xmlns:xlink="http://www.w3.org/1999/xlink" width="500" zoomAndPan="magnify" viewBox="0 0 375 374.999991" height="500" preserveAspectRatio="xMidYMid meet" version="1.0"><rect x="-37.5" width="450" fill="#ffffff" y="-37.499999" height="449.999989" fill-opacity="1"/><rect x="-37.5" width="450" fill="#ffffff" y="-37.499999" height="449.999989" fill-opacity="1"/><path fill="#083c71" d="M 184.566406 371.519531 C 186.523438 372 188.476562 372 190.433594 371.519531 C 193.167969 370.839844 195.886719 370.101562 198.59375 369.308594 C 201.300781 368.515625 203.988281 367.667969 206.65625 366.761719 C 209.328125 365.855469 211.976562 364.898438 214.605469 363.882812 C 217.238281 362.867188 219.84375 361.796875 222.429688 360.675781 C 225.015625 359.550781 227.578125 358.375 230.113281 357.144531 C 232.652344 355.917969 235.164062 354.632812 237.644531 353.300781 C 240.128906 351.96875 242.585938 350.582031 245.011719 349.148438 C 247.4375 347.710938 249.832031 346.226562 252.199219 344.691406 C 254.5625 343.15625 256.894531 341.570312 259.191406 339.941406 C 261.492188 338.308594 263.757812 336.628906 265.984375 334.902344 C 268.214844 333.175781 270.40625 331.40625 272.5625 329.589844 C 274.71875 327.773438 276.835938 325.910156 278.914062 324.007812 C 280.992188 322.101562 283.03125 320.15625 285.027344 318.164062 C 287.023438 316.175781 288.980469 314.144531 290.894531 312.074219 C 292.808594 310.003906 294.675781 307.894531 296.503906 305.746094 C 298.328125 303.597656 300.109375 301.414062 301.84375 299.191406 C 303.578125 296.96875 305.265625 294.714844 306.910156 292.421875 C 308.550781 290.128906 310.144531 287.804688 311.6875 285.445312 C 313.234375 283.085938 314.726562 280.699219 316.171875 278.277344 C 317.621094 275.855469 319.015625 273.40625 320.359375 270.929688 C 321.703125 268.449219 322.992188 265.945312 324.234375 263.414062 C 325.472656 260.882812 326.660156 258.324219 327.792969 255.746094 C 328.929688 253.164062 330.007812 250.558594 331.035156 247.933594 C 332.058594 245.308594 333.03125 242.660156 333.945312 239.996094 C 334.863281 237.328125 335.722656 234.644531 336.527344 231.941406 C 337.332031 229.242188 338.082031 226.523438 338.773438 223.789062 C 339.464844 221.058594 340.097656 218.3125 340.675781 215.550781 C 341.253906 212.792969 341.773438 210.023438 342.238281 207.242188 C 342.699219 204.460938 343.105469 201.671875 343.453125 198.871094 C 343.796875 196.074219 344.085938 193.269531 344.316406 190.460938 C 344.546875 187.652344 344.71875 184.839844 344.835938 182.023438 C 344.949219 179.203125 345.003906 176.386719 345 173.566406 L 345 76.644531 C 345 75.847656 344.921875 75.0625 344.765625 74.28125 C 344.613281 73.5 344.382812 72.742188 344.078125 72.007812 C 343.773438 71.273438 343.398438 70.574219 342.957031 69.914062 C 342.515625 69.25 342.015625 68.640625 341.453125 68.078125 C 340.890625 67.515625 340.277344 67.011719 339.617188 66.570312 C 338.953125 66.128906 338.257812 65.753906 337.519531 65.449219 C 336.785156 65.148438 336.027344 64.917969 335.25 64.761719 C 334.46875 64.605469 333.679688 64.527344 332.882812 64.527344 C 326.578125 64.269531 320.296875 63.734375 314.039062 62.917969 C 307.78125 62.101562 301.570312 61.011719 295.410156 59.648438 C 289.246094 58.285156 283.15625 56.648438 277.140625 54.746094 C 271.125 52.839844 265.203125 50.675781 259.375 48.246094 C 253.550781 45.820312 247.84375 43.136719 242.257812 40.207031 C 236.667969 37.273438 231.222656 34.097656 225.914062 30.683594 C 220.605469 27.265625 215.460938 23.625 210.476562 19.753906 C 205.492188 15.882812 200.6875 11.796875 196.066406 7.5 C 195.503906 6.9375 194.890625 6.4375 194.230469 5.996094 C 193.570312 5.554688 192.871094 5.179688 192.136719 4.875 C 191.402344 4.570312 190.644531 4.34375 189.863281 4.1875 C 189.082031 4.03125 188.296875 3.953125 187.5 3.953125 C 186.703125 3.953125 185.917969 4.03125 185.136719 4.1875 C 184.355469 4.34375 183.597656 4.570312 182.863281 4.875 C 182.128906 5.179688 181.429688 5.554688 180.769531 5.996094 C 180.109375 6.4375 179.496094 6.9375 178.933594 7.5 C 122.804688 63.632812 42.890625 64.527344 42.117188 64.527344 C 41.320312 64.527344 40.53125 64.605469 39.75 64.761719 C 38.972656 64.917969 38.214844 65.148438 37.480469 65.449219 C 36.742188 65.753906 36.046875 66.128906 35.382812 66.570312 C 34.722656 67.011719 34.109375 67.515625 33.546875 68.078125 C 32.984375 68.640625 32.484375 69.25 32.042969 69.914062 C 31.601562 70.574219 31.226562 71.273438 30.921875 72.007812 C 30.617188 72.742188 30.386719 73.5 30.234375 74.28125 C 30.078125 75.0625 30 75.847656 30 76.644531 L 30 173.566406 C 29.996094 176.386719 30.050781 179.203125 30.164062 182.023438 C 30.28125 184.839844 30.453125 187.652344 30.683594 190.460938 C 30.914062 193.269531 31.203125 196.074219 31.546875 198.871094 C 31.894531 201.671875 32.300781 204.460938 32.761719 207.242188 C 33.226562 210.023438 33.746094 212.792969 34.324219 215.550781 C 34.902344 218.3125 35.535156 221.058594 36.226562 223.789062 C 36.917969 226.523438 37.667969 229.242188 38.472656 231.941406 C 39.277344 234.644531 40.136719 237.328125 41.054688 239.996094 C 41.96875 242.660156 42.941406 245.308594 43.964844 247.933594 C 44.992188 250.558594 46.070312 253.164062 47.207031 255.746094 C 48.339844 258.324219 49.527344 260.882812 50.765625 263.414062 C 52.007812 265.945312 53.296875 268.449219 54.640625 270.929688 C 55.984375 273.40625 57.378906 275.855469 58.828125 278.277344 C 60.273438 280.699219 61.765625 283.085938 63.3125 285.445312 C 64.855469 287.804688 66.449219 290.128906 68.089844 292.421875 C 69.734375 294.714844 71.421875 296.96875 73.15625 299.191406 C 74.890625 301.414062 76.671875 303.597656 78.496094 305.746094 C 80.324219 307.894531 82.191406 310.003906 84.105469 312.074219 C 86.019531 314.144531 87.976562 316.175781 89.972656 318.164062 C 91.96875 320.15625 94.007812 322.101562 96.085938 324.007812 C 98.164062 325.910156 100.28125 327.773438 102.4375 329.589844 C 104.59375 331.40625 106.785156 333.175781 109.015625 334.902344 C 111.242188 336.628906 113.507812 338.308594 115.808594 339.941406 C 118.105469 341.570312 120.4375 343.15625 122.800781 344.691406 C 125.167969 346.226562 127.5625 347.710938 129.988281 349.148438 C 132.414062 350.582031 134.871094 351.96875 137.355469 353.300781 C 139.835938 354.632812 142.347656 355.917969 144.886719 357.144531 C 147.421875 358.375 149.984375 359.550781 152.570312 360.675781 C 155.15625 361.796875 157.761719 362.867188 160.394531 363.882812 C 163.023438 364.898438 165.671875 365.855469 168.34375 366.761719 C 171.011719 367.667969 173.699219 368.515625 176.40625 369.308594 C 179.113281 370.101562 181.832031 370.839844 184.566406 371.519531 Z M 54.230469 88.105469 C 60.324219 87.589844 66.386719 86.839844 72.417969 85.851562 C 78.453125 84.867188 84.4375 83.652344 90.378906 82.203125 C 96.316406 80.753906 102.191406 79.078125 108 77.175781 C 113.8125 75.273438 119.539062 73.148438 125.183594 70.800781 C 130.828125 68.453125 136.375 65.894531 141.824219 63.117188 C 147.269531 60.34375 152.601562 57.359375 157.816406 54.171875 C 163.035156 50.984375 168.121094 47.597656 173.074219 44.015625 C 178.027344 40.433594 182.835938 36.667969 187.5 32.714844 C 192.164062 36.667969 196.972656 40.433594 201.925781 44.015625 C 206.878906 47.597656 211.964844 50.984375 217.183594 54.171875 C 222.398438 57.359375 227.730469 60.34375 233.175781 63.117188 C 238.625 65.894531 244.171875 68.453125 249.816406 70.800781 C 255.460938 73.148438 261.1875 75.273438 267 77.175781 C 272.808594 79.078125 278.683594 80.753906 284.621094 82.203125 C 290.5625 83.652344 296.546875 84.867188 302.582031 85.851562 C 308.613281 86.839844 314.675781 87.589844 320.769531 88.105469 L 320.769531 173.566406 C 320.773438 176.019531 320.722656 178.472656 320.625 180.921875 C 320.527344 183.375 320.378906 185.820312 320.183594 188.265625 C 319.984375 190.710938 319.738281 193.148438 319.4375 195.585938 C 319.140625 198.019531 318.792969 200.445312 318.394531 202.867188 C 317.996094 205.285156 317.550781 207.699219 317.054688 210.101562 C 316.558594 212.503906 316.011719 214.894531 315.417969 217.273438 C 314.824219 219.652344 314.179688 222.019531 313.488281 224.371094 C 312.796875 226.726562 312.058594 229.0625 311.273438 231.386719 C 310.484375 233.710938 309.648438 236.015625 308.769531 238.304688 C 307.886719 240.59375 306.957031 242.863281 305.984375 245.113281 C 305.007812 247.363281 303.988281 249.59375 302.921875 251.804688 C 301.855469 254.011719 300.746094 256.199219 299.589844 258.363281 C 298.433594 260.523438 297.234375 262.664062 295.992188 264.777344 C 294.75 266.890625 293.464844 268.980469 292.132812 271.042969 C 290.804688 273.101562 289.433594 275.136719 288.023438 277.140625 C 286.609375 279.148438 285.160156 281.125 283.664062 283.070312 C 282.171875 285.015625 280.640625 286.929688 279.070312 288.8125 C 277.496094 290.695312 275.886719 292.546875 274.238281 294.363281 C 272.59375 296.179688 270.910156 297.964844 269.1875 299.710938 C 267.46875 301.460938 265.710938 303.171875 263.921875 304.847656 C 262.132812 306.523438 260.308594 308.164062 258.449219 309.765625 C 256.59375 311.367188 254.703125 312.929688 252.78125 314.453125 C 250.859375 315.976562 248.90625 317.460938 246.921875 318.90625 C 244.941406 320.347656 242.929688 321.75 240.890625 323.113281 C 238.851562 324.472656 236.78125 325.792969 234.6875 327.070312 C 232.59375 328.347656 230.476562 329.582031 228.332031 330.769531 C 226.1875 331.960938 224.019531 333.105469 221.824219 334.207031 C 219.632812 335.308594 217.421875 336.363281 215.1875 337.375 C 212.953125 338.386719 210.695312 339.351562 208.421875 340.269531 C 206.148438 341.1875 203.855469 342.058594 201.546875 342.882812 C 199.234375 343.707031 196.910156 344.484375 194.566406 345.210938 C 192.226562 345.941406 189.871094 346.621094 187.5 347.253906 C 185.128906 346.621094 182.773438 345.941406 180.433594 345.210938 C 178.089844 344.484375 175.765625 343.707031 173.453125 342.882812 C 171.144531 342.058594 168.851562 341.1875 166.578125 340.269531 C 164.304688 339.351562 162.046875 338.386719 159.8125 337.375 C 157.578125 336.363281 155.367188 335.308594 153.175781 334.207031 C 150.980469 333.105469 148.8125 331.960938 146.667969 330.769531 C 144.523438 329.582031 142.40625 328.347656 140.3125 327.070312 C 138.21875 325.792969 136.148438 324.472656 134.109375 323.113281 C 132.070312 321.75 130.058594 320.347656 128.074219 318.90625 C 126.09375 317.460938 124.140625 315.976562 122.21875 314.453125 C 120.296875 312.929688 118.40625 311.367188 116.550781 309.765625 C 114.691406 308.164062 112.867188 306.523438 111.078125 304.847656 C 109.289062 303.171875 107.53125 301.460938 105.8125 299.710938 C 104.089844 297.964844 102.40625 296.179688 100.761719 294.363281 C 99.113281 292.546875 97.503906 290.695312 95.929688 288.8125 C 94.359375 286.929688 92.828125 285.015625 91.335938 283.070312 C 89.839844 281.125 88.390625 279.148438 86.976562 277.140625 C 85.566406 275.136719 84.195312 273.101562 82.867188 271.042969 C 81.535156 268.980469 80.25 266.890625 79.007812 264.777344 C 77.765625 262.664062 76.566406 260.523438 75.410156 258.363281 C 74.253906 256.199219 73.144531 254.011719 72.078125 251.804688 C 71.011719 249.59375 69.992188 247.363281 69.015625 245.113281 C 68.042969 242.863281 67.113281 240.59375 66.230469 238.304688 C 65.351562 236.015625 64.515625 233.710938 63.726562 231.386719 C 62.941406 229.0625 62.203125 226.726562 61.511719 224.371094 C 60.820312 222.019531 60.175781 219.652344 59.582031 217.273438 C 58.988281 214.894531 58.441406 212.503906 57.945312 210.101562 C 57.449219 207.699219 57.003906 205.285156 56.605469 202.867188 C 56.207031 200.445312 55.859375 198.019531 55.5625 195.585938 C 55.261719 193.148438 55.015625 190.710938 54.816406 188.265625 C 54.621094 185.820312 54.472656 183.375 54.375 180.921875 C 54.277344 178.472656 54.226562 176.019531 54.230469 173.566406 Z M 54.230469 88.105469 " fill-opacity="1" fill-rule="nonzero"/><path fill="#083c71" d="M 166.820312 230.59375 C 167.386719 231.148438 168.003906 231.640625 168.664062 232.074219 C 169.328125 232.507812 170.027344 232.875 170.761719 233.171875 C 171.496094 233.472656 172.25 233.699219 173.027344 233.851562 C 173.808594 234 174.59375 234.078125 175.382812 234.078125 C 176.175781 234.078125 176.960938 234 177.738281 233.851562 C 178.519531 233.699219 179.273438 233.472656 180.007812 233.171875 C 180.742188 232.875 181.441406 232.507812 182.105469 232.074219 C 182.765625 231.640625 183.382812 231.148438 183.949219 230.59375 L 256.640625 157.902344 C 257.1875 157.335938 257.675781 156.722656 258.101562 156.0625 C 258.53125 155.402344 258.890625 154.707031 259.179688 153.976562 C 259.472656 153.246094 259.691406 152.492188 259.835938 151.71875 C 259.980469 150.945312 260.050781 150.167969 260.042969 149.378906 C 260.035156 148.59375 259.953125 147.816406 259.792969 147.042969 C 259.636719 146.273438 259.40625 145.527344 259.101562 144.800781 C 258.796875 144.074219 258.425781 143.386719 257.988281 142.734375 C 257.546875 142.078125 257.050781 141.476562 256.496094 140.917969 C 255.9375 140.363281 255.332031 139.863281 254.679688 139.425781 C 254.027344 138.988281 253.339844 138.617188 252.613281 138.3125 C 251.886719 138.007812 251.140625 137.777344 250.367188 137.617188 C 249.597656 137.460938 248.820312 137.378906 248.035156 137.371094 C 247.246094 137.363281 246.46875 137.433594 245.695312 137.578125 C 244.921875 137.722656 244.167969 137.941406 243.4375 138.234375 C 242.707031 138.523438 242.011719 138.882812 241.351562 139.3125 C 240.691406 139.738281 240.078125 140.222656 239.511719 140.769531 L 175.382812 204.898438 L 147.605469 177.117188 C 147.039062 176.570312 146.425781 176.082031 145.765625 175.65625 C 145.105469 175.230469 144.40625 174.871094 143.675781 174.578125 C 142.945312 174.289062 142.195312 174.070312 141.421875 173.925781 C 140.648438 173.777344 139.867188 173.710938 139.082031 173.714844 C 138.296875 173.722656 137.515625 173.804688 136.746094 173.964844 C 135.976562 174.121094 135.226562 174.355469 134.503906 174.660156 C 133.777344 174.960938 133.085938 175.332031 132.433594 175.773438 C 131.78125 176.210938 131.175781 176.707031 130.621094 177.265625 C 130.0625 177.820312 129.566406 178.425781 129.128906 179.078125 C 128.691406 179.730469 128.320312 180.421875 128.015625 181.148438 C 127.710938 181.871094 127.480469 182.621094 127.320312 183.390625 C 127.160156 184.160156 127.078125 184.941406 127.070312 185.726562 C 127.066406 186.511719 127.132812 187.292969 127.28125 188.066406 C 127.425781 188.839844 127.644531 189.589844 127.933594 190.320312 C 128.226562 191.050781 128.585938 191.746094 129.011719 192.410156 C 129.441406 193.070312 129.925781 193.683594 130.472656 194.25 Z M 166.820312 230.59375 " fill-opacity="1" fill-rule="nonzero"/></svg>