<svg xmlns="http://www.w3.org/2000/svg" xmlns:xlink="http://www.w3.org/1999/xlink" width="500" zoomAndPan="magnify" viewBox="0 0 375 374.999991" height="500" preserveAspectRatio="xMidYMid meet" version="1.0"><defs><clipPath id="0315848b7b"><path d="M 187.5 0 C 83.945312 0 0 83.945312 0 187.5 C 0 291.054688 83.945312 375 187.5 375 C 291.054688 375 375 291.054688 375 187.5 C 375 83.945312 291.054688 0 187.5 0 Z M 187.5 0 " clip-rule="nonzero"/></clipPath><clipPath id="f0da5042ee"><path d="M 71.285156 39 L 313.535156 39 L 313.535156 326.25 L 71.285156 326.25 Z M 71.285156 39 " clip-rule="nonzero"/></clipPath></defs><rect x="-37.5" width="450" fill="#ffffff" y="-37.499999" height="449.999989" fill-opacity="1"/><rect x="-37.5" width="450" fill="#ffffff" y="-37.499999" height="449.999989" fill-opacity="1"/><g clip-path="url(#0315848b7b)"><rect x="-37.5" width="450" fill="#c8ecff" y="-37.499999" height="449.999989" fill-opacity="1"/></g><g clip-path="url(#f0da5042ee)"><path fill="#083c71" d="M 248.664062 100.882812 C 255.183594 100.882812 260.445312 95.621094 260.445312 89.105469 C 260.445312 82.585938 255.183594 77.328125 248.664062 77.328125 C 242.148438 77.328125 236.886719 82.585938 236.886719 89.105469 C 236.886719 95.621094 242.148438 100.882812 248.664062 100.882812 Z M 240.65625 85.492188 C 241.441406 84 242.542969 82.667969 244.03125 81.960938 C 245.445312 81.175781 247.171875 80.9375 248.664062 81.332031 C 242.777344 82.824219 239.949219 88.789062 242.777344 94.285156 C 241.519531 93.34375 240.578125 92.011719 240.183594 90.359375 C 239.792969 88.789062 240.027344 87.0625 240.65625 85.492188 Z M 313.582031 318.214844 C 313.582031 322.800781 309.867188 326.515625 305.28125 326.515625 C 300.699219 326.515625 296.984375 322.800781 296.984375 318.214844 C 296.984375 313.632812 300.699219 309.917969 305.28125 309.917969 C 309.867188 309.917969 313.582031 313.632812 313.582031 318.214844 Z M 295.703125 296.039062 C 295.703125 300.019531 292.476562 303.242188 288.5 303.242188 C 284.523438 303.242188 281.296875 300.019531 281.296875 296.039062 C 281.296875 292.0625 284.523438 288.839844 288.5 288.839844 C 292.476562 288.839844 295.703125 292.0625 295.703125 296.039062 Z M 274.183594 137.394531 C 281.878906 137.394531 288.164062 131.191406 288.164062 123.496094 C 288.164062 115.722656 281.878906 109.519531 274.183594 109.519531 C 266.488281 109.519531 260.207031 115.722656 260.207031 123.496094 C 260.207031 131.191406 266.488281 137.394531 274.183594 137.394531 Z M 274.183594 112.269531 C 280.386719 112.269531 285.414062 117.292969 285.414062 123.496094 C 285.414062 129.621094 280.386719 134.726562 274.183594 134.726562 C 267.980469 134.726562 262.957031 129.621094 262.957031 123.496094 C 262.957031 117.292969 267.980469 112.269531 274.183594 112.269531 Z M 205.320312 136.0625 C 205.320312 144.070312 211.839844 150.585938 219.847656 150.585938 C 227.9375 150.585938 234.375 144.070312 234.375 136.0625 C 234.375 128.050781 227.9375 121.535156 219.847656 121.535156 C 211.839844 121.535156 205.320312 128.050781 205.320312 136.0625 Z M 212.625 142.34375 C 211.054688 141.320312 209.875 139.59375 209.484375 137.550781 C 209.011719 135.589844 209.328125 133.46875 210.03125 131.585938 C 210.976562 129.777344 212.386719 128.128906 214.195312 127.1875 C 215.921875 126.246094 218.042969 126.011719 219.847656 126.480469 C 212.546875 128.207031 209.089844 135.667969 212.625 142.34375 Z M 265.984375 119.523438 C 266.808594 117.917969 268.050781 116.496094 269.640625 115.695312 C 271.210938 114.855469 273.046875 114.695312 274.640625 115.121094 C 268.386719 116.949219 265.585938 123.019531 268.355469 128.9375 C 266.980469 128.023438 265.902344 126.53125 265.496094 124.796875 C 265.046875 123.074219 265.324219 121.199219 265.984375 119.523438 Z M 284.316406 260.359375 C 283.136719 268.054688 276.542969 273.710938 268.84375 273.710938 L 239.558594 273.710938 C 244.660156 267.585938 247.09375 260.203125 247.488281 253.371094 C 247.644531 250.230469 246.546875 247.246094 244.425781 245.050781 C 242.304688 242.773438 239.320312 241.515625 236.179688 241.515625 C 235.550781 241.515625 235.003906 241.515625 234.375 241.671875 C 231 242.144531 227.699219 242.457031 224.480469 242.457031 C 215.292969 242.457031 206.5 240.257812 197.941406 235.625 L 189.066406 177.992188 L 258.714844 171.632812 L 297.976562 171.632812 Z M 128.054688 190.867188 L 142.347656 185.292969 L 141.875 184.039062 L 86.441406 42.542969 C 85.496094 40.1875 82.90625 39.085938 80.628906 39.949219 L 74.742188 42.304688 C 72.382812 43.167969 71.285156 45.761719 72.148438 48.117188 L 127.585938 189.613281 Z M 95.234375 97.347656 C 91.621094 87.769531 87.933594 78.191406 85.105469 68.296875 C 89.738281 77.484375 93.585938 87.0625 97.433594 96.484375 C 101.042969 106.144531 104.734375 115.722656 107.5625 125.617188 C 102.851562 116.429688 99.082031 106.851562 95.234375 97.347656 Z M 271.757812 315.730469 C 271.757812 321.34375 267.207031 325.894531 261.589844 325.894531 C 255.976562 325.894531 251.425781 321.34375 251.425781 315.730469 C 251.425781 310.113281 255.976562 305.5625 261.589844 305.5625 C 267.207031 305.5625 271.757812 310.113281 271.757812 315.730469 Z M 253.554688 288.839844 C 253.554688 285.710938 256.089844 283.175781 259.214844 283.175781 C 262.34375 283.175781 264.875 285.710938 264.875 288.839844 C 264.875 291.964844 262.34375 294.5 259.214844 294.5 C 256.089844 294.5 253.554688 291.964844 253.554688 288.839844 Z M 207.328125 89.339844 C 207.824219 88.394531 208.554688 87.554688 209.5 87.097656 C 210.429688 86.613281 211.515625 86.546875 212.441406 86.832031 C 208.871094 88.082031 207.371094 91.324219 208.796875 94.839844 C 207.015625 93.859375 206.46875 91.292969 207.328125 89.339844 Z M 236.179688 247.40625 C 235.867188 247.40625 235.550781 247.40625 235.238281 247.484375 C 231.625 248.03125 228.015625 248.347656 224.480469 248.347656 C 215.609375 248.347656 207.128906 246.460938 199.039062 242.773438 C 184.199219 236.097656 170.378906 223.375 156.71875 204.609375 L 151.378906 191.027344 C 150.75 189.457031 149.257812 188.433594 147.609375 188.433594 C 147.058594 188.433594 146.585938 188.511719 146.117188 188.75 L 127.664062 195.972656 C 125.542969 196.757812 124.445312 199.113281 125.308594 201.234375 L 130.648438 214.816406 C 104.972656 240.417969 105.679688 270.097656 113.921875 287.921875 C 119.734375 300.484375 131.824219 312.734375 148.15625 312.734375 C 155.066406 312.734375 162.761719 310.613281 171.007812 305.273438 C 175.167969 307.003906 179.332031 307.789062 183.335938 307.789062 C 201.003906 307.789062 215.609375 292.949219 215.53125 280.621094 C 222.203125 279.441406 227.308594 276.929688 231.15625 273.710938 C 238.300781 267.976562 241.207031 259.8125 241.597656 252.980469 C 241.753906 249.839844 239.242188 247.40625 236.179688 247.40625 Z M 127.429688 280.070312 C 120.675781 269.078125 122.875 254.3125 129.941406 246.933594 C 125.78125 269.941406 146.117188 288.785156 156.324219 293.105469 C 141.328125 294.910156 132.453125 288.15625 127.429688 280.070312 Z M 167.082031 274.808594 C 167.082031 274.808594 172.890625 279.207031 179.175781 284.152344 C 162.449219 286.742188 143.683594 262.324219 148.078125 239.789062 C 156.167969 260.753906 170.773438 271.824219 189.695312 275.90625 C 187.105469 277.476562 174.699219 280.699219 167.082031 274.808594 Z M 202.496094 263.34375 C 176.660156 266.800781 161.269531 247.328125 159.464844 230.367188 C 166.375 239.472656 180.746094 253.527344 201.316406 257.769531 C 206.34375 258.867188 211.761719 259.339844 217.570312 259.027344 C 212.152344 261.304688 207.128906 262.714844 202.496094 263.34375 Z M 180.207031 163.777344 C 180.207031 159.4375 183.722656 155.921875 188.058594 155.921875 L 297.988281 155.921875 C 302.324219 155.921875 305.839844 159.4375 305.839844 163.777344 C 305.839844 168.113281 302.324219 171.628906 297.988281 171.628906 L 188.058594 171.628906 C 183.722656 171.628906 180.207031 168.113281 180.207031 163.777344 Z M 211.683594 99.941406 C 216.234375 99.941406 220.003906 96.25 220.003906 91.695312 C 220.003906 87.0625 216.234375 83.371094 211.683594 83.371094 C 207.128906 83.371094 203.4375 87.0625 203.4375 91.695312 C 203.4375 96.25 207.128906 99.941406 211.683594 99.941406 Z M 211.683594 85.335938 C 215.214844 85.335938 218.042969 88.164062 218.042969 91.695312 C 218.042969 95.152344 215.214844 97.976562 211.683594 97.976562 C 208.226562 97.976562 205.402344 95.152344 205.402344 91.695312 C 205.402344 88.164062 208.226562 85.335938 211.683594 85.335938 Z M 211.683594 85.335938 " fill-opacity="1" fill-rule="nonzero"/></g></svg>