<svg xmlns="http://www.w3.org/2000/svg" xmlns:xlink="http://www.w3.org/1999/xlink" width="500" zoomAndPan="magnify" viewBox="0 0 375 374.999991" height="500" preserveAspectRatio="xMidYMid meet" version="1.0"><defs><clipPath id="39b3693b71"><path d="M 187.5 0 C 83.945312 0 0 83.945312 0 187.5 C 0 291.054688 83.945312 375 187.5 375 C 291.054688 375 375 291.054688 375 187.5 C 375 83.945312 291.054688 0 187.5 0 Z M 187.5 0 " clip-rule="nonzero"/></clipPath><clipPath id="03b42f66bf"><path d="M 57.664062 95 L 314.914062 95 L 314.914062 310.886719 L 57.664062 310.886719 Z M 57.664062 95 " clip-rule="nonzero"/></clipPath><clipPath id="89419a585f"><path d="M 115 61.886719 L 158 61.886719 L 158 112 L 115 112 Z M 115 61.886719 " clip-rule="nonzero"/></clipPath><clipPath id="be372ac0f5"><path d="M 273 103 L 314.914062 103 L 314.914062 154 L 273 154 Z M 273 103 " clip-rule="nonzero"/></clipPath></defs><rect x="-37.5" width="450" fill="#ffffff" y="-37.499999" height="449.999989" fill-opacity="1"/><rect x="-37.5" width="450" fill="#ffffff" y="-37.499999" height="449.999989" fill-opacity="1"/><g clip-path="url(#39b3693b71)"><rect x="-37.5" width="450" fill="#c8ecff" y="-37.499999" height="449.999989" fill-opacity="1"/></g><g clip-path="url(#03b42f66bf)"><path fill="#083c71" d="M 61.847656 203.039062 L 74.304688 203.039062 L 74.304688 306.828125 C 74.304688 307.101562 74.332031 307.371094 74.382812 307.636719 C 74.4375 307.90625 74.515625 308.164062 74.621094 308.414062 C 74.722656 308.667969 74.851562 308.90625 75.003906 309.132812 C 75.15625 309.359375 75.328125 309.570312 75.519531 309.761719 C 75.710938 309.957031 75.921875 310.128906 76.148438 310.277344 C 76.375 310.429688 76.613281 310.558594 76.867188 310.664062 C 77.117188 310.765625 77.378906 310.84375 77.644531 310.898438 C 77.914062 310.953125 78.183594 310.980469 78.453125 310.980469 L 95.0625 310.980469 C 95.332031 310.980469 95.605469 310.953125 95.871094 310.898438 C 96.136719 310.84375 96.398438 310.765625 96.648438 310.664062 C 96.902344 310.558594 97.140625 310.429688 97.367188 310.277344 C 97.59375 310.128906 97.804688 309.957031 97.996094 309.761719 C 98.191406 309.570312 98.363281 309.359375 98.511719 309.132812 C 98.664062 308.90625 98.792969 308.667969 98.898438 308.414062 C 99 308.164062 99.078125 307.90625 99.132812 307.636719 C 99.1875 307.371094 99.210938 307.101562 99.210938 306.828125 L 99.210938 277.765625 L 169.789062 277.765625 C 170.0625 277.765625 170.332031 277.738281 170.597656 277.6875 C 170.867188 277.632812 171.125 277.554688 171.378906 277.449219 C 171.628906 277.347656 171.871094 277.21875 172.097656 277.066406 C 172.324219 276.914062 172.53125 276.742188 172.726562 276.550781 C 172.917969 276.355469 173.089844 276.148438 173.242188 275.921875 C 173.394531 275.695312 173.519531 275.453125 173.625 275.203125 C 173.730469 274.953125 173.808594 274.691406 173.859375 274.425781 C 173.914062 274.15625 173.941406 273.886719 173.941406 273.613281 L 173.941406 236.25 L 273.578125 236.25 L 273.578125 306.828125 C 273.578125 307.101562 273.605469 307.371094 273.660156 307.636719 C 273.710938 307.90625 273.789062 308.164062 273.894531 308.414062 C 274 308.667969 274.125 308.90625 274.277344 309.132812 C 274.429688 309.359375 274.601562 309.570312 274.792969 309.761719 C 274.988281 309.957031 275.195312 310.128906 275.421875 310.277344 C 275.648438 310.429688 275.890625 310.558594 276.140625 310.664062 C 276.394531 310.765625 276.652344 310.84375 276.921875 310.898438 C 277.1875 310.953125 277.457031 310.980469 277.730469 310.980469 L 294.335938 310.980469 C 294.609375 310.980469 294.878906 310.953125 295.144531 310.898438 C 295.414062 310.84375 295.671875 310.765625 295.925781 310.664062 C 296.175781 310.558594 296.417969 310.429688 296.644531 310.277344 C 296.871094 310.128906 297.078125 309.957031 297.273438 309.761719 C 297.464844 309.570312 297.636719 309.359375 297.789062 309.132812 C 297.941406 308.90625 298.066406 308.667969 298.171875 308.414062 C 298.277344 308.164062 298.355469 307.90625 298.40625 307.636719 C 298.460938 307.371094 298.488281 307.101562 298.488281 306.828125 L 298.488281 203.039062 L 310.941406 203.039062 C 311.214844 203.039062 311.484375 203.011719 311.753906 202.957031 C 312.019531 202.90625 312.28125 202.828125 312.53125 202.722656 C 312.78125 202.617188 313.023438 202.488281 313.25 202.339844 C 313.476562 202.1875 313.683594 202.015625 313.878906 201.820312 C 314.070312 201.628906 314.242188 201.417969 314.394531 201.191406 C 314.546875 200.964844 314.671875 200.726562 314.777344 200.476562 C 314.882812 200.222656 314.960938 199.964844 315.015625 199.695312 C 315.066406 199.429688 315.09375 199.160156 315.09375 198.886719 L 315.09375 173.976562 C 315.09375 173.703125 315.066406 173.433594 315.015625 173.167969 C 314.960938 172.898438 314.882812 172.640625 314.777344 172.386719 C 314.671875 172.136719 314.546875 171.898438 314.394531 171.671875 C 314.242188 171.445312 314.070312 171.234375 313.878906 171.042969 C 313.683594 170.847656 313.476562 170.675781 313.25 170.523438 C 313.023438 170.375 312.78125 170.246094 312.53125 170.140625 C 312.28125 170.039062 312.019531 169.957031 311.753906 169.90625 C 311.484375 169.851562 311.214844 169.824219 310.941406 169.824219 L 275.421875 169.824219 C 276.941406 167.265625 277.710938 164.5 277.730469 161.523438 L 277.730469 157.371094 C 277.730469 157.097656 277.703125 156.828125 277.648438 156.5625 C 277.597656 156.292969 277.519531 156.035156 277.414062 155.78125 C 277.308594 155.53125 277.183594 155.289062 277.03125 155.0625 C 276.878906 154.835938 276.707031 154.628906 276.515625 154.433594 C 276.320312 154.242188 276.113281 154.070312 275.886719 153.917969 C 275.660156 153.765625 275.417969 153.640625 275.167969 153.535156 C 274.914062 153.429688 274.65625 153.351562 274.386719 153.300781 C 274.121094 153.246094 273.851562 153.21875 273.578125 153.21875 L 269.425781 153.21875 L 269.425781 111.703125 C 269.425781 111.160156 269.398438 110.617188 269.347656 110.074219 C 269.292969 109.535156 269.214844 108.996094 269.109375 108.464844 C 269 107.929688 268.871094 107.402344 268.710938 106.882812 C 268.554688 106.363281 268.371094 105.851562 268.164062 105.347656 C 267.953125 104.847656 267.722656 104.355469 267.464844 103.875 C 267.210938 103.394531 266.929688 102.929688 266.628906 102.476562 C 266.324219 102.027344 266.003906 101.589844 265.65625 101.167969 C 265.3125 100.75 264.949219 100.347656 264.5625 99.960938 C 264.179688 99.578125 263.777344 99.210938 263.355469 98.867188 C 262.933594 98.523438 262.5 98.199219 262.046875 97.894531 C 261.59375 97.59375 261.128906 97.316406 260.648438 97.058594 C 260.167969 96.800781 259.679688 96.570312 259.175781 96.363281 C 258.671875 96.152344 258.160156 95.96875 257.640625 95.8125 C 257.121094 95.65625 256.59375 95.523438 256.058594 95.417969 C 255.527344 95.308594 254.988281 95.230469 254.449219 95.175781 C 253.90625 95.125 253.363281 95.097656 252.820312 95.097656 L 194.699219 95.097656 C 194.15625 95.097656 193.613281 95.125 193.070312 95.175781 C 192.53125 95.230469 191.992188 95.308594 191.460938 95.417969 C 190.925781 95.523438 190.398438 95.65625 189.878906 95.8125 C 189.359375 95.96875 188.847656 96.152344 188.34375 96.363281 C 187.839844 96.570312 187.351562 96.800781 186.871094 97.058594 C 186.390625 97.316406 185.925781 97.59375 185.472656 97.894531 C 185.019531 98.199219 184.585938 98.523438 184.164062 98.867188 C 183.742188 99.210938 183.339844 99.578125 182.957031 99.960938 C 182.570312 100.347656 182.207031 100.75 181.863281 101.167969 C 181.515625 101.589844 181.195312 102.027344 180.890625 102.476562 C 180.589844 102.929688 180.308594 103.394531 180.054688 103.875 C 179.796875 104.355469 179.566406 104.847656 179.355469 105.347656 C 179.148438 105.851562 178.964844 106.363281 178.808594 106.882812 C 178.648438 107.402344 178.519531 107.929688 178.410156 108.464844 C 178.304688 108.996094 178.226562 109.535156 178.171875 110.074219 C 178.121094 110.617188 178.09375 111.160156 178.09375 111.703125 L 178.09375 153.21875 L 173.941406 153.21875 C 173.667969 153.21875 173.398438 153.246094 173.132812 153.300781 C 172.863281 153.351562 172.605469 153.429688 172.351562 153.535156 C 172.101562 153.640625 171.859375 153.765625 171.632812 153.917969 C 171.40625 154.070312 171.199219 154.242188 171.003906 154.433594 C 170.8125 154.628906 170.640625 154.835938 170.488281 155.0625 C 170.335938 155.289062 170.210938 155.53125 170.105469 155.78125 C 170 156.035156 169.921875 156.292969 169.871094 156.5625 C 169.816406 156.828125 169.789062 157.097656 169.789062 157.371094 L 169.789062 161.523438 C 169.808594 164.5 170.578125 167.265625 172.097656 169.824219 L 155.597656 169.824219 C 155.882812 168.992188 155.894531 168.152344 155.632812 167.308594 L 139.628906 120.132812 C 139.539062 119.875 139.429688 119.625 139.292969 119.390625 C 139.15625 119.152344 139 118.933594 138.820312 118.726562 C 138.640625 118.523438 138.441406 118.335938 138.226562 118.171875 C 138.007812 118.003906 137.777344 117.863281 137.535156 117.742188 C 137.289062 117.621094 137.035156 117.523438 136.773438 117.453125 C 136.507812 117.382812 136.242188 117.339844 135.96875 117.320312 C 135.699219 117.304688 135.425781 117.3125 135.15625 117.347656 C 134.886719 117.382812 134.621094 117.445312 134.363281 117.53125 L 123.015625 121.386719 C 122.628906 120.949219 122.167969 120.613281 121.640625 120.371094 C 121.109375 120.132812 120.554688 120.007812 119.96875 120.007812 L 70.152344 120.007812 C 69.878906 120.007812 69.609375 120.035156 69.34375 120.085938 C 69.074219 120.140625 68.816406 120.21875 68.5625 120.324219 C 68.3125 120.425781 68.070312 120.554688 67.84375 120.707031 C 67.617188 120.859375 67.410156 121.03125 67.214844 121.222656 C 67.023438 121.414062 66.851562 121.625 66.699219 121.851562 C 66.546875 122.078125 66.421875 122.316406 66.316406 122.570312 C 66.210938 122.820312 66.132812 123.082031 66.082031 123.347656 C 66.027344 123.617188 66 123.886719 66 124.160156 L 66 169.824219 L 61.847656 169.824219 C 61.578125 169.824219 61.304688 169.851562 61.039062 169.90625 C 60.773438 169.957031 60.511719 170.039062 60.261719 170.140625 C 60.007812 170.246094 59.769531 170.375 59.542969 170.523438 C 59.316406 170.675781 59.105469 170.847656 58.914062 171.042969 C 58.71875 171.234375 58.546875 171.445312 58.398438 171.671875 C 58.246094 171.898438 58.117188 172.136719 58.011719 172.386719 C 57.910156 172.640625 57.832031 172.898438 57.777344 173.167969 C 57.722656 173.433594 57.695312 173.703125 57.695312 173.976562 L 57.695312 198.886719 C 57.695312 199.160156 57.722656 199.429688 57.777344 199.695312 C 57.832031 199.964844 57.910156 200.222656 58.011719 200.476562 C 58.117188 200.726562 58.246094 200.964844 58.398438 201.191406 C 58.546875 201.417969 58.71875 201.628906 58.914062 201.820312 C 59.105469 202.015625 59.316406 202.1875 59.542969 202.339844 C 59.769531 202.488281 60.007812 202.617188 60.261719 202.722656 C 60.511719 202.828125 60.773438 202.90625 61.039062 202.957031 C 61.304688 203.011719 61.578125 203.039062 61.847656 203.039062 Z M 82.605469 302.675781 L 82.605469 203.039062 L 90.910156 203.039062 L 90.910156 302.675781 Z M 165.636719 232.097656 L 99.210938 232.097656 L 99.210938 203.039062 L 165.636719 203.039062 Z M 99.210938 269.464844 L 99.210938 240.402344 L 165.636719 240.402344 L 165.636719 269.464844 Z M 173.941406 227.949219 L 173.941406 203.039062 L 273.578125 203.039062 L 273.578125 227.949219 Z M 290.183594 302.675781 L 281.882812 302.675781 L 281.882812 203.039062 L 290.183594 203.039062 Z M 186.394531 111.703125 C 186.394531 111.160156 186.449219 110.617188 186.554688 110.082031 C 186.660156 109.550781 186.820312 109.03125 187.027344 108.527344 C 187.238281 108.023438 187.492188 107.542969 187.796875 107.089844 C 188.097656 106.636719 188.441406 106.21875 188.828125 105.832031 C 189.214844 105.445312 189.632812 105.101562 190.085938 104.800781 C 190.539062 104.496094 191.019531 104.242188 191.519531 104.03125 C 192.023438 103.824219 192.542969 103.667969 193.078125 103.558594 C 193.613281 103.453125 194.152344 103.402344 194.699219 103.402344 L 252.820312 103.402344 C 253.367188 103.402344 253.90625 103.453125 254.441406 103.558594 C 254.976562 103.667969 255.496094 103.824219 256 104.03125 C 256.5 104.242188 256.980469 104.496094 257.433594 104.800781 C 257.886719 105.101562 258.304688 105.445312 258.691406 105.832031 C 259.078125 106.21875 259.421875 106.636719 259.722656 107.089844 C 260.027344 107.542969 260.28125 108.023438 260.492188 108.527344 C 260.699219 109.03125 260.859375 109.550781 260.964844 110.082031 C 261.070312 110.617188 261.125 111.160156 261.125 111.703125 L 261.125 153.21875 L 186.394531 153.21875 Z M 178.09375 161.523438 L 269.425781 161.523438 C 269.425781 162.066406 269.375 162.609375 269.265625 163.140625 C 269.160156 163.675781 269.003906 164.195312 268.792969 164.699219 C 268.585938 165.203125 268.332031 165.683594 268.027344 166.136719 C 267.726562 166.589844 267.378906 167.007812 266.996094 167.394531 C 266.609375 167.777344 266.191406 168.125 265.738281 168.425781 C 265.285156 168.730469 264.804688 168.984375 264.300781 169.195312 C 263.796875 169.402344 263.277344 169.558594 262.742188 169.664062 C 262.207031 169.773438 261.667969 169.824219 261.125 169.824219 L 186.394531 169.824219 C 185.851562 169.824219 185.308594 169.773438 184.777344 169.664062 C 184.242188 169.558594 183.722656 169.402344 183.21875 169.195312 C 182.714844 168.984375 182.234375 168.730469 181.78125 168.425781 C 181.328125 168.125 180.910156 167.777344 180.523438 167.394531 C 180.140625 167.007812 179.792969 166.589844 179.492188 166.136719 C 179.1875 165.683594 178.933594 165.203125 178.722656 164.699219 C 178.515625 164.195312 178.359375 163.675781 178.253906 163.140625 C 178.144531 162.609375 178.09375 162.066406 178.09375 161.523438 Z M 124.121094 151.972656 L 130.179688 169.824219 L 124.121094 169.824219 Z M 133.097656 126.738281 L 146.433594 166.050781 L 138.570312 168.722656 L 125.238281 129.40625 Z M 115.820312 169.824219 L 107.515625 169.824219 L 107.515625 128.308594 L 115.820312 128.308594 Z M 90.910156 169.824219 L 90.910156 128.308594 L 99.210938 128.308594 L 99.210938 169.824219 Z M 74.304688 128.308594 L 82.605469 128.308594 L 82.605469 169.824219 L 74.304688 169.824219 Z M 66 178.128906 L 306.789062 178.128906 L 306.789062 194.734375 L 66 194.734375 Z M 66 178.128906 " fill-opacity="1" fill-rule="nonzero"/></g><path fill="#083c71" d="M 115.820312 248.707031 L 149.03125 248.707031 L 149.03125 257.007812 L 115.820312 257.007812 Z M 115.820312 248.707031 " fill-opacity="1" fill-rule="nonzero"/><path fill="#083c71" d="M 115.820312 211.339844 L 149.03125 211.339844 L 149.03125 219.644531 L 115.820312 219.644531 Z M 115.820312 211.339844 " fill-opacity="1" fill-rule="nonzero"/><g clip-path="url(#89419a585f)"><path fill="#083c71" d="M 118.660156 90.734375 C 120.238281 91.253906 121.730469 91.964844 123.128906 92.863281 C 124.53125 93.765625 125.796875 94.824219 126.925781 96.046875 C 128.058594 97.265625 129.019531 98.609375 129.808594 100.070312 C 130.601562 101.535156 131.195312 103.078125 131.59375 104.691406 L 132.5625 108.5625 C 132.675781 109.007812 132.855469 109.429688 133.109375 109.816406 C 133.363281 110.203125 133.671875 110.539062 134.035156 110.824219 C 134.398438 111.109375 134.800781 111.328125 135.238281 111.476562 C 135.675781 111.628906 136.125 111.703125 136.589844 111.703125 C 137.050781 111.703125 137.503906 111.628906 137.941406 111.476562 C 138.378906 111.328125 138.777344 111.109375 139.144531 110.824219 C 139.507812 110.539062 139.816406 110.203125 140.070312 109.816406 C 140.320312 109.429688 140.503906 109.007812 140.617188 108.5625 L 141.582031 104.691406 C 141.984375 103.078125 142.578125 101.539062 143.367188 100.074219 C 144.15625 98.609375 145.117188 97.269531 146.246094 96.046875 C 147.378906 94.828125 148.640625 93.765625 150.039062 92.867188 C 151.4375 91.96875 152.929688 91.257812 154.507812 90.734375 C 154.921875 90.597656 155.308594 90.398438 155.660156 90.140625 C 156.011719 89.882812 156.316406 89.578125 156.574219 89.222656 C 156.832031 88.871094 157.027344 88.484375 157.160156 88.070312 C 157.296875 87.652344 157.363281 87.226562 157.363281 86.789062 C 157.363281 86.351562 157.296875 85.925781 157.160156 85.511719 C 157.027344 85.09375 156.832031 84.710938 156.574219 84.355469 C 156.316406 84 156.011719 83.695312 155.660156 83.4375 C 155.308594 83.179688 154.921875 82.984375 154.507812 82.847656 C 152.925781 82.324219 151.4375 81.617188 150.035156 80.71875 C 148.632812 79.820312 147.367188 78.761719 146.234375 77.542969 C 145.101562 76.320312 144.140625 74.980469 143.347656 73.515625 C 142.554688 72.050781 141.960938 70.511719 141.558594 68.898438 L 140.589844 65.027344 C 140.480469 64.578125 140.296875 64.160156 140.042969 63.773438 C 139.792969 63.382812 139.484375 63.046875 139.117188 62.765625 C 138.753906 62.480469 138.351562 62.261719 137.914062 62.109375 C 137.476562 61.960938 137.027344 61.886719 136.566406 61.886719 C 136.101562 61.886719 135.652344 61.960938 135.214844 62.109375 C 134.777344 62.261719 134.375 62.480469 134.011719 62.765625 C 133.644531 63.046875 133.335938 63.382812 133.085938 63.773438 C 132.832031 64.160156 132.648438 64.578125 132.539062 65.027344 L 131.570312 68.898438 C 131.171875 70.511719 130.574219 72.050781 129.785156 73.515625 C 128.996094 74.976562 128.035156 76.320312 126.90625 77.539062 C 125.777344 78.761719 124.511719 79.820312 123.113281 80.722656 C 121.714844 81.621094 120.226562 82.332031 118.644531 82.855469 C 118.230469 82.992188 117.847656 83.1875 117.492188 83.445312 C 117.140625 83.703125 116.835938 84.007812 116.578125 84.363281 C 116.324219 84.71875 116.128906 85.101562 115.992188 85.519531 C 115.859375 85.933594 115.792969 86.359375 115.792969 86.796875 C 115.792969 87.234375 115.859375 87.660156 115.992188 88.078125 C 116.128906 88.492188 116.324219 88.878906 116.578125 89.234375 C 116.835938 89.585938 117.140625 89.894531 117.492188 90.152344 C 117.847656 90.410156 118.230469 90.605469 118.644531 90.742188 Z M 136.578125 78.398438 C 138.539062 81.726562 141.078125 84.523438 144.203125 86.792969 C 141.078125 89.0625 138.539062 91.863281 136.578125 95.1875 C 134.617188 91.863281 132.074219 89.0625 128.949219 86.792969 C 132.074219 84.523438 134.617188 81.726562 136.578125 78.398438 Z M 136.578125 78.398438 " fill-opacity="1" fill-rule="nonzero"/></g><g clip-path="url(#be372ac0f5)"><path fill="#083c71" d="M 276.417969 132.25 C 278 132.769531 279.488281 133.480469 280.890625 134.378906 C 282.289062 135.28125 283.554688 136.339844 284.6875 137.5625 C 285.816406 138.78125 286.777344 140.125 287.570312 141.585938 C 288.359375 143.050781 288.953125 144.59375 289.355469 146.207031 L 290.320312 150.078125 C 290.433594 150.523438 290.617188 150.945312 290.867188 151.332031 C 291.121094 151.71875 291.429688 152.054688 291.792969 152.339844 C 292.160156 152.625 292.5625 152.84375 293 152.992188 C 293.4375 153.144531 293.886719 153.21875 294.347656 153.21875 C 294.8125 153.21875 295.261719 153.144531 295.699219 152.992188 C 296.136719 152.84375 296.539062 152.625 296.902344 152.339844 C 297.265625 152.054688 297.574219 151.71875 297.828125 151.332031 C 298.082031 150.945312 298.261719 150.523438 298.375 150.078125 L 299.34375 146.207031 C 299.742188 144.59375 300.335938 143.054688 301.125 141.589844 C 301.917969 140.125 302.875 138.785156 304.007812 137.5625 C 305.136719 136.34375 306.402344 135.28125 307.800781 134.382812 C 309.199219 133.484375 310.6875 132.773438 312.265625 132.25 C 312.683594 132.113281 313.066406 131.914062 313.417969 131.65625 C 313.773438 131.398438 314.078125 131.09375 314.332031 130.738281 C 314.589844 130.386719 314.785156 130 314.921875 129.585938 C 315.054688 129.167969 315.121094 128.742188 315.121094 128.304688 C 315.121094 127.867188 315.054688 127.441406 314.921875 127.027344 C 314.785156 126.609375 314.589844 126.226562 314.332031 125.871094 C 314.078125 125.515625 313.773438 125.210938 313.417969 124.953125 C 313.066406 124.695312 312.683594 124.5 312.265625 124.363281 C 310.6875 123.839844 309.195312 123.132812 307.792969 122.234375 C 306.394531 121.335938 305.125 120.277344 303.992188 119.058594 C 302.863281 117.835938 301.898438 116.496094 301.109375 115.03125 C 300.316406 113.566406 299.71875 112.027344 299.316406 110.414062 L 298.351562 106.542969 C 298.238281 106.09375 298.054688 105.675781 297.804688 105.289062 C 297.550781 104.898438 297.242188 104.5625 296.878906 104.28125 C 296.511719 103.996094 296.113281 103.777344 295.675781 103.625 C 295.238281 103.476562 294.785156 103.402344 294.324219 103.402344 C 293.859375 103.402344 293.410156 103.476562 292.972656 103.625 C 292.535156 103.777344 292.132812 103.996094 291.769531 104.28125 C 291.40625 104.5625 291.097656 104.898438 290.84375 105.289062 C 290.589844 105.675781 290.410156 106.09375 290.296875 106.542969 L 289.328125 110.414062 C 288.929688 112.027344 288.335938 113.566406 287.546875 115.03125 C 286.757812 116.492188 285.796875 117.835938 284.667969 119.054688 C 283.535156 120.277344 282.273438 121.335938 280.871094 122.238281 C 279.472656 123.136719 277.984375 123.847656 276.40625 124.371094 C 275.992188 124.507812 275.605469 124.703125 275.253906 124.960938 C 274.898438 125.21875 274.59375 125.527344 274.339844 125.878906 C 274.082031 126.234375 273.886719 126.617188 273.753906 127.035156 C 273.617188 127.449219 273.550781 127.875 273.550781 128.3125 C 273.550781 128.75 273.617188 129.175781 273.753906 129.59375 C 273.886719 130.007812 274.082031 130.394531 274.339844 130.75 C 274.59375 131.101562 274.898438 131.410156 275.253906 131.667969 C 275.605469 131.925781 275.992188 132.121094 276.40625 132.257812 Z M 294.335938 119.914062 C 296.296875 123.242188 298.839844 126.039062 301.960938 128.308594 C 298.839844 130.578125 296.296875 133.378906 294.335938 136.703125 C 292.375 133.378906 289.832031 130.578125 286.710938 128.308594 C 289.832031 126.039062 292.375 123.242188 294.335938 119.914062 Z M 294.335938 119.914062 " fill-opacity="1" fill-rule="nonzero"/></g><path fill="#083c71" d="M 207.984375 251.566406 L 207.015625 247.695312 C 206.902344 247.246094 206.722656 246.828125 206.46875 246.441406 C 206.21875 246.054688 205.910156 245.71875 205.542969 245.433594 C 205.179688 245.148438 204.777344 244.929688 204.339844 244.78125 C 203.902344 244.628906 203.453125 244.554688 202.988281 244.554688 C 202.527344 244.554688 202.078125 244.628906 201.640625 244.78125 C 201.203125 244.929688 200.800781 245.148438 200.433594 245.433594 C 200.070312 245.71875 199.761719 246.054688 199.507812 246.441406 C 199.257812 246.828125 199.074219 247.246094 198.960938 247.695312 L 197.996094 251.566406 C 197.597656 253.179688 197 254.71875 196.210938 256.183594 C 195.421875 257.648438 194.460938 258.988281 193.332031 260.210938 C 192.203125 261.429688 190.9375 262.488281 189.539062 263.390625 C 188.140625 264.289062 186.652344 265 185.070312 265.523438 C 184.65625 265.660156 184.273438 265.855469 183.917969 266.113281 C 183.566406 266.371094 183.261719 266.679688 183.003906 267.03125 C 182.75 267.386719 182.554688 267.773438 182.417969 268.1875 C 182.285156 268.601562 182.214844 269.03125 182.214844 269.46875 C 182.214844 269.902344 182.285156 270.332031 182.417969 270.746094 C 182.554688 271.164062 182.75 271.546875 183.003906 271.902344 C 183.261719 272.253906 183.566406 272.5625 183.917969 272.820312 C 184.273438 273.078125 184.65625 273.273438 185.070312 273.410156 C 186.652344 273.929688 188.144531 274.640625 189.542969 275.539062 C 190.945312 276.4375 192.210938 277.496094 193.34375 278.714844 C 194.476562 279.9375 195.4375 281.277344 196.230469 282.742188 C 197.023438 284.207031 197.617188 285.746094 198.019531 287.359375 L 198.988281 291.230469 C 199.101562 291.679688 199.28125 292.097656 199.535156 292.484375 C 199.785156 292.871094 200.09375 293.207031 200.460938 293.492188 C 200.824219 293.777344 201.226562 293.996094 201.664062 294.144531 C 202.101562 294.296875 202.550781 294.371094 203.015625 294.371094 C 203.476562 294.371094 203.925781 294.296875 204.363281 294.144531 C 204.800781 293.996094 205.203125 293.777344 205.566406 293.492188 C 205.933594 293.207031 206.242188 292.871094 206.492188 292.484375 C 206.746094 292.097656 206.929688 291.679688 207.042969 291.230469 L 208.007812 287.359375 C 208.40625 285.746094 209.003906 284.207031 209.792969 282.742188 C 210.582031 281.277344 211.542969 279.9375 212.671875 278.714844 C 213.800781 277.496094 215.066406 276.4375 216.464844 275.535156 C 217.863281 274.636719 219.351562 273.925781 220.933594 273.402344 C 221.347656 273.265625 221.730469 273.070312 222.085938 272.8125 C 222.4375 272.554688 222.742188 272.246094 223 271.894531 C 223.253906 271.539062 223.449219 271.152344 223.585938 270.738281 C 223.71875 270.324219 223.789062 269.894531 223.789062 269.457031 C 223.789062 269.023438 223.71875 268.59375 223.585938 268.179688 C 223.449219 267.761719 223.253906 267.378906 223 267.023438 C 222.742188 266.671875 222.4375 266.363281 222.085938 266.105469 C 221.730469 265.847656 221.347656 265.652344 220.933594 265.515625 C 219.351562 264.996094 217.859375 264.285156 216.460938 263.386719 C 215.058594 262.488281 213.792969 261.429688 212.660156 260.210938 C 211.527344 258.988281 210.566406 257.648438 209.773438 256.183594 C 208.980469 254.71875 208.386719 253.179688 207.984375 251.566406 Z M 203 277.859375 C 201.042969 274.53125 198.5 271.734375 195.375 269.464844 C 198.5 267.191406 201.042969 264.394531 203 261.070312 C 204.960938 264.394531 207.503906 267.191406 210.628906 269.464844 C 207.503906 271.734375 204.960938 274.53125 203 277.859375 Z M 203 277.859375 " fill-opacity="1" fill-rule="nonzero"/></svg>