<svg xmlns="http://www.w3.org/2000/svg" xmlns:xlink="http://www.w3.org/1999/xlink" width="500" zoomAndPan="magnify" viewBox="0 0 375 374.999991" height="500" preserveAspectRatio="xMidYMid meet" version="1.0"><defs><clipPath id="1bc22fc6e1"><path d="M 187.5 0 C 83.945312 0 0 83.945312 0 187.5 C 0 291.054688 83.945312 375 187.5 375 C 291.054688 375 375 291.054688 375 187.5 C 375 83.945312 291.054688 0 187.5 0 Z M 187.5 0 " clip-rule="nonzero"/></clipPath><clipPath id="9cab0180dc"><path d="M 97 57.066406 L 135 57.066406 L 135 201 L 97 201 Z M 97 57.066406 " clip-rule="nonzero"/></clipPath><clipPath id="3fc4bdb3bc"><path d="M 57.066406 241 L 175 241 L 175 318 L 57.066406 318 Z M 57.066406 241 " clip-rule="nonzero"/></clipPath></defs><rect x="-37.5" width="450" fill="#ffffff" y="-37.499999" height="449.999989" fill-opacity="1"/><rect x="-37.5" width="450" fill="#ffffff" y="-37.499999" height="449.999989" fill-opacity="1"/><g clip-path="url(#1bc22fc6e1)"><rect x="-37.5" width="450" fill="#c8ecff" y="-37.499999" height="449.999989" fill-opacity="1"/></g><g clip-path="url(#9cab0180dc)"><path fill="#083c71" d="M 129.191406 200.273438 L 102.898438 200.273438 C 100.078125 200.273438 97.789062 197.984375 97.789062 195.160156 L 97.789062 75.425781 C 97.789062 65.355469 105.976562 57.167969 116.042969 57.167969 C 126.109375 57.167969 134.300781 65.355469 134.300781 75.425781 L 134.300781 195.160156 C 134.300781 197.984375 132.011719 200.273438 129.191406 200.273438 Z M 108.011719 190.050781 L 124.078125 190.050781 L 124.078125 75.425781 C 124.078125 70.992188 120.476562 67.390625 116.042969 67.390625 C 111.613281 67.390625 108.011719 70.992188 108.011719 75.425781 Z M 108.011719 190.050781 " fill-opacity="1" fill-rule="nonzero"/></g><path fill="#083c71" d="M 139.042969 220.714844 L 93.046875 220.714844 C 90.222656 220.714844 87.933594 218.425781 87.933594 215.605469 L 87.933594 195.160156 C 87.933594 192.339844 90.222656 190.050781 93.046875 190.050781 L 139.042969 190.050781 C 141.867188 190.050781 144.15625 192.339844 144.15625 195.160156 L 144.15625 215.605469 C 144.15625 218.425781 141.867188 220.714844 139.042969 220.714844 Z M 98.15625 210.492188 L 133.933594 210.492188 L 133.933594 200.273438 L 98.15625 200.273438 Z M 98.15625 210.492188 " fill-opacity="1" fill-rule="nonzero"/><g clip-path="url(#3fc4bdb3bc)"><path fill="#083c71" d="M 169.710938 317.824219 L 62.378906 317.824219 C 59.40625 317.824219 57.054688 315.289062 57.285156 312.320312 L 62.394531 245.878906 C 62.601562 243.214844 64.820312 241.160156 67.492188 241.160156 L 164.597656 241.160156 C 167.269531 241.160156 169.488281 243.214844 169.695312 245.878906 L 174.804688 312.320312 C 174.914062 313.738281 174.425781 315.140625 173.457031 316.183594 C 172.492188 317.226562 171.132812 317.824219 169.710938 317.824219 Z M 67.898438 307.601562 L 164.191406 307.601562 L 159.863281 251.382812 L 72.222656 251.382812 Z M 67.898438 307.601562 " fill-opacity="1" fill-rule="nonzero"/></g><path fill="#083c71" d="M 164.597656 251.382812 L 67.492188 251.382812 C 64.667969 251.382812 62.378906 249.09375 62.378906 246.269531 L 62.378906 230.9375 C 62.378906 219.664062 71.550781 210.492188 82.824219 210.492188 L 149.265625 210.492188 C 160.539062 210.492188 169.710938 219.664062 169.710938 230.9375 L 169.710938 246.269531 C 169.710938 249.09375 167.421875 251.382812 164.597656 251.382812 Z M 72.601562 241.160156 L 159.488281 241.160156 L 159.488281 230.9375 C 159.488281 225.300781 154.902344 220.714844 149.265625 220.714844 L 82.824219 220.714844 C 77.1875 220.714844 72.601562 225.300781 72.601562 230.9375 Z M 72.601562 241.160156 " fill-opacity="1" fill-rule="nonzero"/><path fill="#083c71" d="M 85.378906 317.824219 C 82.558594 317.824219 80.269531 315.535156 80.269531 312.710938 L 80.269531 287.15625 C 80.269531 284.335938 82.558594 282.046875 85.378906 282.046875 C 88.203125 282.046875 90.492188 284.335938 90.492188 287.15625 L 90.492188 312.710938 C 90.492188 315.535156 88.203125 317.824219 85.378906 317.824219 Z M 85.378906 317.824219 " fill-opacity="1" fill-rule="nonzero"/><path fill="#083c71" d="M 105.824219 317.824219 C 103 317.824219 100.710938 315.535156 100.710938 312.710938 L 100.710938 287.15625 C 100.710938 284.335938 103 282.046875 105.824219 282.046875 C 108.644531 282.046875 110.933594 284.335938 110.933594 287.15625 L 110.933594 312.710938 C 110.933594 315.535156 108.644531 317.824219 105.824219 317.824219 Z M 105.824219 317.824219 " fill-opacity="1" fill-rule="nonzero"/><path fill="#083c71" d="M 126.265625 317.824219 C 123.445312 317.824219 121.15625 315.535156 121.15625 312.710938 L 121.15625 287.15625 C 121.15625 284.335938 123.445312 282.046875 126.265625 282.046875 C 129.089844 282.046875 131.378906 284.335938 131.378906 287.15625 L 131.378906 312.710938 C 131.378906 315.535156 129.089844 317.824219 126.265625 317.824219 Z M 126.265625 317.824219 " fill-opacity="1" fill-rule="nonzero"/><path fill="#083c71" d="M 146.710938 317.824219 C 143.886719 317.824219 141.597656 315.535156 141.597656 312.710938 L 141.597656 287.15625 C 141.597656 284.335938 143.886719 282.046875 146.710938 282.046875 C 149.53125 282.046875 151.820312 284.335938 151.820312 287.15625 L 151.820312 312.710938 C 151.820312 315.535156 149.53125 317.824219 146.710938 317.824219 Z M 146.710938 317.824219 " fill-opacity="1" fill-rule="nonzero"/><path fill="#083c71" d="M 302.59375 205.382812 L 185.042969 205.382812 C 176.585938 205.382812 169.710938 198.503906 169.710938 190.050781 C 169.710938 181.597656 176.585938 174.71875 185.042969 174.71875 L 302.59375 174.71875 C 311.046875 174.71875 317.925781 181.597656 317.925781 190.050781 C 317.925781 198.503906 311.046875 205.382812 302.59375 205.382812 Z M 185.042969 184.941406 C 182.222656 184.941406 179.929688 187.230469 179.929688 190.050781 C 179.929688 192.867188 182.222656 195.160156 185.042969 195.160156 L 302.59375 195.160156 C 305.410156 195.160156 307.703125 192.867188 307.703125 190.050781 C 307.703125 187.230469 305.410156 184.941406 302.59375 184.941406 Z M 185.042969 184.941406 " fill-opacity="1" fill-rule="nonzero"/><path fill="#083c71" d="M 243.816406 261.601562 C 211.207031 261.601562 183.910156 237.195312 180.324219 204.828125 C 180.15625 203.316406 180.039062 201.734375 179.996094 200.449219 C 179.894531 197.5625 182.210938 195.160156 185.101562 195.160156 L 302.53125 195.160156 C 305.417969 195.160156 307.738281 197.558594 307.636719 200.449219 C 307.59375 201.738281 307.476562 203.320312 307.308594 204.828125 C 303.722656 237.195312 276.425781 261.601562 243.816406 261.601562 Z M 190.699219 205.382812 C 194.449219 231.726562 216.992188 251.382812 243.816406 251.382812 C 270.640625 251.382812 293.183594 231.722656 296.9375 205.382812 Z M 190.699219 205.382812 " fill-opacity="1" fill-rule="nonzero"/><path fill="#083c71" d="M 278.367188 317.824219 L 209.265625 317.824219 C 198.621094 317.824219 189.871094 309.828125 188.90625 299.230469 L 180.011719 200.730469 C 179.746094 197.742188 182.101562 195.160156 185.105469 195.160156 L 302.53125 195.160156 C 305.527344 195.160156 307.890625 197.734375 307.621094 200.730469 L 298.730469 299.226562 C 297.765625 309.828125 289.011719 317.824219 278.367188 317.824219 Z M 190.695312 205.382812 L 199.085938 298.308594 C 199.566406 303.605469 203.945312 307.601562 209.265625 307.601562 L 278.367188 307.601562 C 283.691406 307.601562 288.066406 303.605469 288.546875 298.304688 L 296.9375 205.382812 Z M 190.695312 205.382812 " fill-opacity="1" fill-rule="nonzero"/></svg>