<svg xmlns="http://www.w3.org/2000/svg" xmlns:xlink="http://www.w3.org/1999/xlink" width="500" zoomAndPan="magnify" viewBox="0 0 375 374.999991" height="500" preserveAspectRatio="xMidYMid meet" version="1.0"><defs><clipPath id="09ec995c87"><path d="M 187.5 0 C 83.945312 0 0 83.945312 0 187.5 C 0 291.054688 83.945312 375 187.5 375 C 291.054688 375 375 291.054688 375 187.5 C 375 83.945312 291.054688 0 187.5 0 Z M 187.5 0 " clip-rule="nonzero"/></clipPath><clipPath id="e12c92a9ea"><path d="M 102 275 L 184 275 L 184 316.5 L 102 316.5 Z M 102 275 " clip-rule="nonzero"/></clipPath><clipPath id="c8d1a07c10"><path d="M 47 37.5 L 328 37.5 L 328 143 L 47 143 Z M 47 37.5 " clip-rule="nonzero"/></clipPath><clipPath id="f72a494bb5"><path d="M 71 87 L 304 87 L 304 316.5 L 71 316.5 Z M 71 87 " clip-rule="nonzero"/></clipPath></defs><rect x="-37.5" width="450" fill="#ffffff" y="-37.499999" height="449.999989" fill-opacity="1"/><rect x="-37.5" width="450" fill="#ffffff" y="-37.499999" height="449.999989" fill-opacity="1"/><g clip-path="url(#09ec995c87)"><rect x="-37.5" width="450" fill="#c8ecff" y="-37.499999" height="449.999989" fill-opacity="1"/></g><g clip-path="url(#e12c92a9ea)"><path fill="#083c71" d="M 108.433594 275.117188 L 102.007812 316.878906 L 121.898438 316.878906 L 121.898438 304.945312 C 121.898438 301.652344 124.570312 298.980469 127.863281 298.980469 C 131.160156 298.980469 133.832031 301.652344 133.832031 304.945312 L 133.832031 316.878906 L 151.726562 316.878906 L 151.726562 304.945312 C 151.726562 301.652344 154.398438 298.980469 157.695312 298.980469 C 160.988281 298.980469 163.660156 301.652344 163.660156 304.945312 L 163.660156 316.878906 L 183.550781 316.878906 L 177.125 275.117188 Z M 108.433594 275.117188 " fill-opacity="1" fill-rule="nonzero"/></g><path fill="#083c71" d="M 204.578125 221.65625 L 210.703125 232.855469 L 216.828125 221.65625 C 217.375 220.65625 218.195312 219.832031 219.199219 219.285156 L 230.394531 213.160156 L 219.199219 207.039062 C 218.195312 206.488281 217.375 205.667969 216.828125 204.664062 L 210.703125 193.46875 L 204.578125 204.664062 C 204.03125 205.667969 203.207031 206.488281 202.207031 207.039062 L 191.007812 213.160156 L 202.207031 219.285156 C 203.207031 219.835938 204.027344 220.65625 204.578125 221.65625 Z M 204.578125 221.65625 " fill-opacity="1" fill-rule="nonzero"/><path fill="#083c71" d="M 111 258.425781 L 110.269531 263.1875 L 175.292969 263.1875 L 174.558594 258.425781 C 173.921875 254.269531 170.40625 251.253906 166.199219 251.253906 C 156.632812 251.253906 129.273438 251.253906 119.359375 251.253906 C 115.15625 251.253906 111.640625 254.269531 111 258.425781 Z M 111 258.425781 " fill-opacity="1" fill-rule="nonzero"/><path fill="#083c71" d="M 261.394531 185.835938 L 264.394531 191.320312 L 267.394531 185.835938 C 267.941406 184.832031 268.761719 184.011719 269.765625 183.464844 L 275.25 180.464844 L 269.765625 177.464844 C 268.761719 176.914062 267.941406 176.09375 267.394531 175.089844 L 264.394531 169.605469 L 261.394531 175.089844 C 260.84375 176.09375 260.023438 176.914062 259.023438 177.464844 L 253.535156 180.464844 L 259.023438 183.464844 C 260.023438 184.011719 260.84375 184.832031 261.394531 185.835938 Z M 261.394531 185.835938 " fill-opacity="1" fill-rule="nonzero"/><path fill="#083c71" d="M 142.78125 161.769531 C 139.492188 161.769531 136.8125 164.445312 136.8125 167.734375 L 136.8125 239.324219 L 148.746094 239.324219 L 148.746094 167.734375 C 148.746094 164.445312 146.070312 161.769531 142.78125 161.769531 Z M 142.78125 161.769531 " fill-opacity="1" fill-rule="nonzero"/><g clip-path="url(#c8d1a07c10)"><path fill="#083c71" d="M 321.714844 119.675781 L 187.523438 37.515625 L 53.332031 119.675781 C 45.335938 124.570312 45.265625 136.34375 53.503906 141.207031 C 57.371094 143.488281 62.023438 143.554688 65.957031 141.386719 L 184.640625 75.917969 C 186.433594 74.929688 188.613281 74.929688 190.40625 75.917969 L 309.089844 141.386719 C 313.023438 143.554688 317.675781 143.488281 321.542969 141.207031 C 329.777344 136.34375 329.710938 124.570312 321.714844 119.675781 Z M 321.714844 119.675781 " fill-opacity="1" fill-rule="nonzero"/></g><path fill="#083c71" d="M 106.984375 54.382812 L 83.121094 54.382812 L 83.121094 87.445312 L 106.984375 72.835938 Z M 106.984375 54.382812 " fill-opacity="1" fill-rule="nonzero"/><g clip-path="url(#f72a494bb5)"><path fill="#083c71" d="M 71.191406 152.105469 L 71.191406 316.878906 L 89.9375 316.878906 L 99.207031 256.613281 C 100.75 246.59375 109.222656 239.324219 119.359375 239.324219 L 124.882812 239.324219 L 124.882812 167.734375 C 124.882812 157.867188 132.910156 149.835938 142.78125 149.835938 C 152.648438 149.835938 160.675781 157.867188 160.675781 167.734375 L 160.675781 239.324219 L 166.199219 239.324219 C 176.335938 239.324219 184.8125 246.59375 186.351562 256.613281 L 195.625 316.878906 L 303.855469 316.878906 L 303.855469 152.105469 C 302.730469 151.519531 219.53125 105.609375 187.523438 87.957031 C 155.171875 105.796875 72.328125 151.511719 71.191406 152.105469 Z M 238.242188 175.230469 L 251.761719 167.832031 L 259.160156 154.308594 C 261.417969 150.175781 267.367188 150.179688 269.628906 154.308594 L 277.023438 167.832031 L 290.546875 175.230469 C 294.679688 177.488281 294.675781 183.4375 290.546875 185.695312 L 277.023438 193.09375 L 269.628906 206.617188 C 267.367188 210.75 261.417969 210.746094 259.160156 206.617188 L 251.761719 193.09375 L 238.242188 185.695312 C 234.109375 183.4375 234.109375 177.488281 238.242188 175.230469 Z M 205.46875 178.171875 C 207.726562 174.039062 213.675781 174.042969 215.9375 178.171875 L 226.457031 197.410156 L 245.691406 207.929688 C 249.824219 210.1875 249.820312 216.136719 245.691406 218.398438 L 226.457031 228.917969 L 215.9375 248.152344 C 213.675781 252.285156 207.726562 252.285156 205.46875 248.152344 L 194.949219 228.917969 L 175.710938 218.398438 C 171.578125 216.136719 171.582031 210.1875 175.710938 207.929688 L 194.949219 197.410156 Z M 205.46875 178.171875 " fill-opacity="1" fill-rule="nonzero"/></g></svg>