<svg xmlns="http://www.w3.org/2000/svg" xmlns:xlink="http://www.w3.org/1999/xlink" width="500" zoomAndPan="magnify" viewBox="0 0 375 374.999991" height="500" preserveAspectRatio="xMidYMid meet" version="1.0"><defs><clipPath id="13254005cc"><path d="M 187.5 0 C 83.945312 0 0 83.945312 0 187.5 C 0 291.054688 83.945312 375 187.5 375 C 291.054688 375 375 291.054688 375 187.5 C 375 83.945312 291.054688 0 187.5 0 Z M 187.5 0 " clip-rule="nonzero"/></clipPath><clipPath id="ebc478f178"><path d="M 37.5 213 L 337.5 213 L 337.5 320.335938 L 37.5 320.335938 Z M 37.5 213 " clip-rule="nonzero"/></clipPath><clipPath id="57ccde4f81"><path d="M 125 76.585938 L 190 76.585938 L 190 162 L 125 162 Z M 125 76.585938 " clip-rule="nonzero"/></clipPath><clipPath id="8a48d3ca2e"><path d="M 37.5 140 L 87 140 L 87 214 L 37.5 214 Z M 37.5 140 " clip-rule="nonzero"/></clipPath></defs><rect x="-37.5" width="450" fill="#ffffff" y="-37.499999" height="449.999989" fill-opacity="1"/><rect x="-37.5" width="450" fill="#ffffff" y="-37.499999" height="449.999989" fill-opacity="1"/><g clip-path="url(#13254005cc)"><rect x="-37.5" width="450" fill="#c8ecff" y="-37.499999" height="449.999989" fill-opacity="1"/></g><g clip-path="url(#ebc478f178)"><path fill="#083c71" d="M 335.03125 250.292969 L 240.585938 217.671875 C 238.707031 217.015625 236.65625 218.015625 236 219.90625 C 235.347656 221.785156 236.347656 223.835938 238.234375 224.492188 L 323.824219 254.0625 L 185.878906 312.757812 L 51.132812 255.097656 L 145.628906 220.449219 C 147.5 219.769531 148.460938 217.6875 147.773438 215.828125 C 147.089844 213.957031 145.011719 212.992188 143.148438 213.683594 L 40.117188 251.453125 C 38.726562 251.964844 37.789062 253.269531 37.753906 254.742188 C 37.71875 256.222656 38.582031 257.574219 39.941406 258.15625 L 184.453125 319.976562 C 184.90625 320.167969 185.386719 320.269531 185.871094 320.269531 C 186.351562 320.269531 186.832031 320.167969 187.277344 319.976562 L 335.257812 257.011719 C 336.628906 256.433594 337.5 255.058594 337.445312 253.570312 C 337.398438 252.082031 336.4375 250.773438 335.03125 250.292969 Z M 335.03125 250.292969 " fill-opacity="1" fill-rule="nonzero"/></g><path fill="#083c71" d="M 170.375 186.582031 C 168.949219 186.367188 167.851562 186.238281 167.007812 186.203125 C 166.035156 186.148438 163.746094 186.039062 162.484375 188.027344 C 161.640625 189.351562 161.722656 191.042969 162.683594 192.324219 C 164.136719 194.257812 166.808594 194.3125 169.421875 194.203125 C 170.105469 194.175781 170.785156 194.128906 171.457031 194.066406 C 173.171875 194.367188 175.445312 194.800781 178.449219 195.421875 C 190.039062 197.808594 199.109375 207.253906 201.027344 218.925781 L 205.503906 246.269531 C 205.796875 248.023438 207.304688 249.292969 209.066406 249.292969 C 209.128906 249.292969 209.183594 249.292969 209.246094 249.285156 C 211.082031 249.195312 212.550781 247.742188 212.671875 245.914062 L 213.949219 225.625 C 214.796875 212.292969 224.078125 201.1875 237.046875 197.992188 L 254.574219 193.667969 C 256.21875 193.257812 257.363281 191.769531 257.316406 190.070312 C 257.269531 188.371094 256.054688 186.945312 254.390625 186.628906 L 238.71875 183.632812 C 226.355469 181.269531 217.058594 171.289062 215.566406 158.792969 L 212.644531 134.21875 C 212.425781 132.417969 210.917969 131.066406 209.109375 131.039062 C 209.09375 131.039062 209.074219 131.039062 209.066406 131.039062 C 207.277344 131.039062 205.757812 132.347656 205.496094 134.125 L 202.144531 157.058594 C 199.835938 172.824219 187.230469 184.96875 171.691406 186.800781 C 171.230469 186.71875 170.785156 186.648438 170.375 186.582031 Z M 208.664062 161.410156 C 209.835938 168.355469 212.980469 174.714844 217.8125 179.898438 C 222.933594 185.394531 229.507812 189.089844 236.847656 190.597656 L 235.3125 190.980469 C 227.484375 192.914062 220.609375 197.199219 215.429688 203.394531 C 211.980469 207.527344 209.492188 212.257812 208.066406 217.34375 C 206.832031 210.285156 203.550781 203.839844 198.585938 198.664062 C 194.953125 194.882812 190.601562 191.976562 185.789062 190.089844 C 197.148438 184.632812 205.757812 174.175781 208.664062 161.410156 Z M 208.664062 161.410156 " fill-opacity="1" fill-rule="nonzero"/><g clip-path="url(#57ccde4f81)"><path fill="#083c71" d="M 132.050781 123.09375 C 132.441406 123.074219 132.832031 123.046875 133.214844 123.011719 C 134.257812 123.210938 135.628906 123.5 137.425781 123.910156 C 144.328125 125.472656 149.742188 131.71875 150.894531 139.46875 L 153.765625 158.628906 C 154.027344 160.402344 155.554688 161.699219 157.324219 161.699219 C 157.378906 161.699219 157.433594 161.699219 157.488281 161.699219 C 159.332031 161.617188 160.820312 160.144531 160.921875 158.300781 L 161.738281 144.082031 C 162.257812 135.179688 167.824219 127.789062 175.597656 125.691406 L 186.804688 122.65625 C 188.414062 122.21875 189.519531 120.742188 189.464844 119.070312 C 189.421875 117.398438 188.230469 115.980469 186.605469 115.644531 L 176.589844 113.546875 C 169.230469 112.003906 163.683594 105.390625 162.785156 97.101562 L 160.914062 79.871094 C 160.714844 78.054688 159.195312 76.675781 157.371094 76.65625 C 157.351562 76.65625 157.34375 76.65625 157.324219 76.65625 C 155.519531 76.65625 153.992188 77.992188 153.746094 79.789062 L 151.605469 95.863281 C 150.207031 106.335938 142.714844 114.417969 133.457031 115.726562 C 133.25 115.691406 133.039062 115.65625 132.851562 115.617188 C 131.886719 115.453125 131.132812 115.363281 130.542969 115.328125 C 129.851562 115.292969 127.753906 115.164062 126.5 117.007812 C 125.640625 118.277344 125.648438 119.933594 126.527344 121.222656 C 127.953125 123.28125 130.617188 123.15625 132.050781 123.09375 Z M 156.972656 103.992188 C 158.0625 107.152344 159.703125 110.070312 161.859375 112.601562 C 164.507812 115.726562 167.75 118.0625 171.375 119.488281 C 167.050781 121.140625 163.257812 124.007812 160.304688 127.886719 C 158.941406 129.675781 157.808594 131.621094 156.90625 133.683594 C 155.78125 130.285156 154.011719 127.171875 151.6875 124.519531 C 149.707031 122.257812 147.398438 120.414062 144.855469 119.050781 C 150.269531 115.671875 154.574219 110.386719 156.972656 103.992188 Z M 156.972656 103.992188 " fill-opacity="1" fill-rule="nonzero"/></g><path fill="#083c71" d="M 270.585938 155.160156 C 270.976562 155.140625 271.367188 155.113281 271.746094 155.078125 C 272.792969 155.277344 274.164062 155.570312 275.960938 155.976562 C 282.863281 157.539062 288.277344 163.789062 289.429688 171.535156 L 292.300781 190.699219 C 292.5625 192.46875 294.089844 193.765625 295.859375 193.765625 C 295.914062 193.765625 295.96875 193.765625 296.023438 193.765625 C 297.867188 193.683594 299.355469 192.214844 299.457031 190.371094 L 300.273438 176.148438 C 300.792969 167.25 306.359375 159.855469 314.132812 157.757812 L 325.339844 154.722656 C 326.945312 154.289062 328.054688 152.808594 328 151.136719 C 327.953125 149.464844 326.765625 148.050781 325.140625 147.714844 L 315.121094 145.617188 C 307.765625 144.070312 302.21875 137.460938 301.316406 129.167969 L 299.445312 111.941406 C 299.246094 110.125 297.730469 108.742188 295.90625 108.726562 C 294.078125 108.707031 292.527344 110.050781 292.289062 111.859375 L 290.148438 127.933594 C 288.75 138.40625 281.257812 146.488281 272 147.796875 C 271.792969 147.757812 271.585938 147.722656 271.394531 147.6875 C 270.429688 147.523438 269.675781 147.433594 269.085938 147.394531 C 268.394531 147.359375 266.296875 147.230469 265.046875 149.074219 C 264.183594 150.347656 264.191406 152 265.074219 153.289062 C 266.488281 155.351562 269.160156 155.222656 270.585938 155.160156 Z M 295.503906 136.0625 C 296.59375 139.222656 298.238281 142.136719 300.390625 144.671875 C 303.042969 147.796875 306.285156 150.128906 309.910156 151.554688 C 305.585938 153.207031 301.789062 156.078125 298.839844 159.957031 C 297.476562 161.746094 296.339844 163.6875 295.441406 165.75 C 294.316406 162.351562 292.546875 159.238281 290.21875 156.585938 C 288.238281 154.324219 285.933594 152.480469 283.390625 151.117188 C 288.804688 147.742188 293.109375 142.453125 295.503906 136.0625 Z M 295.503906 136.0625 " fill-opacity="1" fill-rule="nonzero"/><g clip-path="url(#8a48d3ca2e)"><path fill="#083c71" d="M 43.3125 180.515625 C 43.546875 180.507812 43.777344 180.488281 44.011719 180.460938 C 44.730469 180.625 45.65625 180.851562 46.855469 181.160156 C 51.558594 182.386719 55.273438 187.464844 56.089844 193.792969 L 58.1875 209.976562 C 58.425781 211.785156 59.960938 213.121094 61.765625 213.121094 C 61.8125 213.121094 61.867188 213.121094 61.910156 213.121094 C 63.773438 213.046875 65.28125 211.558594 65.371094 209.695312 L 65.972656 197.691406 C 66.335938 190.488281 70.265625 184.304688 75.542969 182.660156 L 83.753906 180.097656 C 85.308594 179.617188 86.34375 178.15625 86.289062 176.539062 C 86.234375 174.921875 85.105469 173.53125 83.527344 173.152344 L 76.1875 171.378906 C 71.25 170.191406 67.359375 164.6875 66.726562 158.003906 L 65.363281 143.464844 C 65.191406 141.628906 63.65625 140.210938 61.8125 140.195312 C 59.960938 140.175781 58.40625 141.554688 58.1875 143.382812 L 56.617188 156.957031 C 55.636719 165.449219 50.558594 172.007812 44.300781 173.152344 C 44.238281 173.140625 44.175781 173.125 44.113281 173.113281 C 42.476562 172.796875 40.015625 172.324219 38.488281 174.359375 C 37.582031 175.566406 37.5 177.191406 38.28125 178.5 C 39.605469 180.714844 42.304688 180.570312 43.3125 180.515625 Z M 57.152344 173.40625 C 58.90625 171.398438 60.359375 169.046875 61.476562 166.46875 C 63.417969 171.097656 66.644531 174.804688 70.613281 176.910156 C 66.796875 178.871094 63.65625 182.214844 61.566406 186.410156 C 60.777344 184.441406 59.75 182.625 58.507812 180.988281 C 57.136719 179.191406 55.5625 177.691406 53.828125 176.53125 C 55.019531 175.621094 56.125 174.578125 57.152344 173.40625 Z M 57.152344 173.40625 " fill-opacity="1" fill-rule="nonzero"/></g><path fill="#083c71" d="M 110.046875 209.796875 C 119.609375 209.796875 127.390625 202.011719 127.390625 192.449219 C 127.390625 182.886719 119.609375 175.105469 110.046875 175.105469 C 100.484375 175.105469 92.699219 182.886719 92.699219 192.449219 C 92.699219 202.011719 100.484375 209.796875 110.046875 209.796875 Z M 110.046875 182.324219 C 115.632812 182.324219 120.179688 186.863281 120.179688 192.460938 C 120.179688 198.054688 115.640625 202.59375 110.046875 202.59375 C 104.453125 202.59375 99.910156 198.054688 99.910156 192.460938 C 99.910156 186.863281 104.460938 182.324219 110.046875 182.324219 Z M 110.046875 182.324219 " fill-opacity="1" fill-rule="nonzero"/><path fill="#083c71" d="M 157.953125 258.847656 C 157.953125 266.511719 164.191406 272.761719 171.867188 272.761719 C 179.539062 272.761719 185.777344 266.523438 185.777344 258.847656 C 185.777344 251.183594 179.539062 244.933594 171.867188 244.933594 C 164.191406 244.933594 157.953125 251.183594 157.953125 258.847656 Z M 178.558594 258.847656 C 178.558594 262.542969 175.554688 265.539062 171.867188 265.539062 C 168.179688 265.539062 165.171875 262.535156 165.171875 258.847656 C 165.171875 255.152344 168.179688 252.15625 171.867188 252.15625 C 175.554688 252.15625 178.558594 255.160156 178.558594 258.847656 Z M 178.558594 258.847656 " fill-opacity="1" fill-rule="nonzero"/><path fill="#083c71" d="M 223.378906 106.191406 C 229.78125 106.191406 234.992188 100.976562 234.992188 94.574219 C 234.992188 88.171875 229.78125 82.960938 223.378906 82.960938 C 216.976562 82.960938 211.761719 88.171875 211.761719 94.574219 C 211.761719 100.976562 216.976562 106.191406 223.378906 106.191406 Z M 223.378906 90.171875 C 225.8125 90.171875 227.78125 92.152344 227.78125 94.574219 C 227.78125 97.007812 225.800781 98.980469 223.378906 98.980469 C 220.953125 98.980469 218.972656 97 218.972656 94.574219 C 218.972656 92.140625 220.945312 90.171875 223.378906 90.171875 Z M 223.378906 90.171875 " fill-opacity="1" fill-rule="nonzero"/><path fill="#083c71" d="M 309.066406 214.203125 C 309.066406 220.605469 314.277344 225.816406 320.679688 225.816406 C 327.082031 225.816406 332.296875 220.605469 332.296875 214.203125 C 332.296875 207.796875 327.082031 202.585938 320.679688 202.585938 C 314.277344 202.585938 309.066406 207.796875 309.066406 214.203125 Z M 325.09375 214.203125 C 325.09375 216.636719 323.113281 218.605469 320.691406 218.605469 C 318.253906 218.605469 316.285156 216.625 316.285156 214.203125 C 316.285156 211.765625 318.265625 209.796875 320.691406 209.796875 C 323.113281 209.796875 325.09375 211.777344 325.09375 214.203125 Z M 325.09375 214.203125 " fill-opacity="1" fill-rule="nonzero"/><path fill="#083c71" d="M 78.050781 123.945312 C 84.453125 123.945312 89.667969 118.734375 89.667969 112.332031 C 89.667969 105.929688 84.453125 100.714844 78.050781 100.714844 C 71.648438 100.714844 66.433594 105.929688 66.433594 112.332031 C 66.433594 118.734375 71.648438 123.945312 78.050781 123.945312 Z M 78.050781 107.925781 C 80.484375 107.925781 82.453125 109.90625 82.453125 112.332031 C 82.453125 114.765625 80.476562 116.734375 78.050781 116.734375 C 75.617188 116.734375 73.644531 114.753906 73.644531 112.332031 C 73.644531 109.898438 75.617188 107.925781 78.050781 107.925781 Z M 78.050781 107.925781 " fill-opacity="1" fill-rule="nonzero"/></svg>